<?xml version="1.0" encoding="UTF-8" standalone="no"?>
<svg
   xmlns:dc="http://purl.org/dc/elements/1.1/"
   xmlns:cc="http://creativecommons.org/ns#"
   xmlns:rdf="http://www.w3.org/1999/02/22-rdf-syntax-ns#"
   xmlns:svg="http://www.w3.org/2000/svg"
   xmlns="http://www.w3.org/2000/svg"
   viewBox="0 0 1216.6267 743.05334"
   height="743.05334"
   width="1216.6267"
   xml:space="preserve"
   id="svg2"
   version="1.1"><metadata
     id="metadata8"><rdf:RDF><cc:Work
         rdf:about=""><dc:format>image/svg+xml</dc:format><dc:type
           rdf:resource="http://purl.org/dc/dcmitype/StillImage" /></cc:Work></rdf:RDF></metadata><defs
     id="defs6" /><g
     transform="matrix(1.3333333,0,0,-1.3333333,0,743.05333)"
     id="g10"><g
       transform="scale(0.1)"
       id="g12"><path
         id="path14"
         style="fill:#d8c8e8;fill-opacity:1;fill-rule:nonzero;stroke:none"
         d="M 2195.68,106.539 C 2181.26,76.3711 2168.59,31.6992 2158.09,0.378906 2443.02,0.378906 2753.03,0 3007.76,0 3299.01,0.03125 3590.25,0.0507813 3881.49,0.0703125 4463.97,0.128906 5046.46,0.191406 5628.94,0.238281 6791.92,0.351563 7954.9,0.449219 9117.88,0.5625 c 1.99,0 3.98,0.007813 5.97,0.007813 C 9124.13,1846.69 9124.41,3692.8 9124.69,5538.91 8431.35,5679.58 7713.04,5365.14 7188.03,4933.38 c -239.61,-197.04 -457.15,-422.32 -738.94,-567.1 -281.78,-144.79 -656.56,-192.36 -920.47,-22.41 -268.72,173.06 -341.58,509.25 -576.04,718.91 -235.38,210.48 -589.35,267.4 -905.75,206.8 -319.31,-61.16 -646.33,-306.47 -746.07,-592.79 -24.19,-69.45 -33.38,-142.82 -30.67,-215.58 9.67,-259.32 163.67,-485 311.62,-698.53 112.68,-162.62 345.14,-273 380.47,-475.34 21.22,-121.57 -43.71,-244.9 -138.26,-333.67 -94.56,-88.78 -216.22,-149.34 -335.27,-209.58 -342.06,-173.11 -678.83,-354.72 -1009.77,-544.58 -228.37,-131.02 -566.43,-367.06 -440.25,-653.04 77.18,-174.92 303.29,-242.84 461.95,-341.32 85.81,-53.25 164.1,-126.2 185.59,-218.08 C 2711,880.891 2655.78,773.59 2594.58,680.141 2470.93,491.301 2293.37,311.039 2195.68,106.539" /><path
         id="path16"
         style="fill:#382d88;fill-opacity:1;fill-rule:nonzero;stroke:none"
         d="m 6244.54,4376.18 -454.81,101.3 c -21.77,34.24 -33.98,53.44 -55.76,87.69 l 100.71,452.12 c 34.25,21.77 53.44,33.98 87.69,55.75 l 454.82,-101.3 c 21.76,-34.25 33.97,-53.45 55.75,-87.7 l -100.7,-452.12 c -34.25,-21.76 -53.45,-33.97 -87.7,-55.74" /><path
         id="path18"
         style="fill:#6b50ad;fill-opacity:1;fill-rule:nonzero;stroke:none"
         d="m 6263.99,4440.6 -464.54,103.47 103.47,464.55 464.54,-103.47 -103.47,-464.55" /><path
         id="path20"
         style="fill:#6758b1;fill-opacity:1;fill-rule:nonzero;stroke:none"
         d="m 6377.19,4971.74 -9.73,-66.59 65.48,-21.11 z" /><path
         id="path22"
         style="fill:#6758b1;fill-opacity:1;fill-rule:nonzero;stroke:none"
         d="m 5922.37,5073.04 -19.45,-64.42 -68.24,8.67 z" /><path
         id="path24"
         style="fill:#6758b1;fill-opacity:1;fill-rule:nonzero;stroke:none"
         d="m 5789.73,4477.48 9.72,66.59 -65.48,21.1 z" /><path
         id="path26"
         style="fill:#6758b1;fill-opacity:1;fill-rule:nonzero;stroke:none"
         d="m 6244.54,4376.18 19.45,64.42 68.25,-8.68 z" /><path
         id="path28"
         style="fill:#6b50ad;fill-opacity:1;fill-rule:nonzero;stroke:none"
         d="m 6450.86,3827.59 17.77,79.8 c 203.38,-45.29 401.8,65.86 442.32,247.79 43.27,194.26 -61.17,359.92 -253.96,402.86 l 17.78,79.8 c 235.97,-52.55 368.86,-263.02 315.98,-500.44 -50.31,-225.92 -292.52,-364.91 -539.89,-309.81" /><path
         id="path30"
         style="fill:#f37036;fill-opacity:1;fill-rule:nonzero;stroke:none"
         d="m 6621.67,4747.95 c -51.15,11.39 -101.95,-7.5 -133.79,-44.74 l 66.38,-14.78 c 34.53,-7.69 56.29,-41.92 48.6,-76.45 -7.69,-34.54 -41.92,-56.3 -76.45,-48.61 l -66.38,14.79 c 13.03,-47.23 51,-85.9 102.15,-97.29 73.76,-16.43 146.86,30.04 163.29,103.8 16.42,73.75 -30.05,146.85 -103.8,163.28" /><path
         id="path32"
         style="fill:#382d88;fill-opacity:1;fill-rule:nonzero;stroke:none"
         d="m 6685.83,4590.45 c 2.29,10.3 -4.2,20.52 -14.51,22.82 -10.3,2.29 -20.52,-4.2 -22.82,-14.51 -2.3,-10.31 4.19,-20.53 14.51,-22.82 10.31,-2.3 20.52,4.2 22.82,14.51" /><path
         id="path34"
         style="fill:#382d88;fill-opacity:1;fill-rule:nonzero;stroke:none"
         d="m 6525.12,3739.81 -77.97,17.36 46.99,210.96 77.96,-17.37 -46.98,-210.95" /><path
         id="path36"
         style="fill:#6b50ad;fill-opacity:1;fill-rule:nonzero;stroke:none"
         d="m 6465.89,3657.6 -77.96,17.37 87.47,392.73 77.96,-17.37 -87.47,-392.73" /><path
         id="path38"
         style="fill:#6b50ad;fill-opacity:1;fill-rule:nonzero;stroke:none"
         d="m 5365.29,4057.92 c -169.11,38.92 -293.73,161.24 -325.23,319.23 -21.74,108.94 9.25,243.12 82.87,358.94 77,121.12 188.02,203.92 304.58,227.17 l 16,-80.18 c -94.8,-18.91 -186.49,-88.47 -251.59,-190.86 -62.59,-98.48 -89.4,-210.28 -71.69,-299.08 25.14,-126.02 126.07,-223.94 263.4,-255.54 l -18.34,-79.68" /><path
         id="path40"
         style="fill:#f37036;fill-opacity:1;fill-rule:nonzero;stroke:none"
         d="m 5437.67,5078.9 c 49.83,28.24 108.97,24.7 154.14,-4.06 l -64.67,-36.64 c -33.64,-19.07 -45.46,-61.79 -26.39,-95.43 19.06,-33.65 61.79,-45.47 95.43,-26.4 l 64.67,36.64 c 1.45,-53.52 -25.89,-106.07 -75.72,-134.31 -71.86,-40.72 -163.11,-15.48 -203.83,56.37 -40.72,71.86 -15.48,163.11 56.37,203.83" /><path
         id="path42"
         style="fill:#382d88;fill-opacity:1;fill-rule:nonzero;stroke:none"
         d="m 5658.29,4987.03 c -18.81,-11.95 -43.75,-6.4 -55.7,12.42 -11.96,18.8 -6.41,43.75 12.4,55.7 18.82,11.96 43.75,6.4 55.71,-12.41 11.96,-18.81 6.4,-43.75 -12.41,-55.71 z m -25.09,114.68 -68.09,-43.28 3.43,-80.63 71.55,-37.33 68.09,43.29 -3.43,80.62 -71.55,37.33" /><path
         id="path44"
         style="fill:#382d88;fill-opacity:1;fill-rule:nonzero;stroke:none"
         d="m 5461.08,4910.98 c 2.3,10.31 -4.2,20.53 -14.51,22.82 -10.3,2.3 -20.52,-4.19 -22.82,-14.5 -2.3,-10.31 4.2,-20.53 14.51,-22.82 10.31,-2.3 20.53,4.2 22.82,14.5" /><path
         id="path46"
         style="fill:#382d88;fill-opacity:1;fill-rule:nonzero;stroke:none"
         d="m 5313.89,4231 77.96,-17.37 -46.98,-210.95 -77.97,17.36 46.99,210.96" /><path
         id="path48"
         style="fill:#6b50ad;fill-opacity:1;fill-rule:nonzero;stroke:none"
         d="m 5373.11,4313.2 77.97,-17.36 -87.47,-392.73 -77.97,17.36 87.47,392.73" /><path
         id="path50"
         style="fill:#f37036;fill-opacity:1;fill-rule:nonzero;stroke:none"
         d="m 6152.42,3197.04 -779.71,173.66 c -37.32,58.71 -58.25,91.63 -95.57,150.35 l 172.63,775.08 c 58.72,37.32 91.64,58.25 150.35,95.57 l 779.7,-173.66 c 37.33,-58.71 58.26,-91.63 95.58,-150.34 l -172.64,-775.09 c -58.71,-37.32 -91.63,-58.25 -150.34,-95.57" /><path
         id="path52"
         style="fill:#f57b43;fill-opacity:1;fill-rule:nonzero;stroke:none"
         d="m 6185.78,3307.49 -796.4,177.37 177.38,796.4 796.39,-177.38 -177.37,-796.39" /><path
         id="path54"
         style="fill:#f57b43;fill-opacity:1;fill-rule:nonzero;stroke:none"
         d="m 6379.82,4218.04 -16.67,-114.16 112.25,-36.18 z" /><path
         id="path56"
         style="fill:#f57b43;fill-opacity:1;fill-rule:nonzero;stroke:none"
         d="m 5600.12,4391.7 -33.36,-110.44 -116.99,14.87 z" /><path
         id="path58"
         style="fill:#f57b43;fill-opacity:1;fill-rule:nonzero;stroke:none"
         d="m 5372.71,3370.7 16.67,114.16 -112.24,36.19 z" /><path
         id="path60"
         style="fill:#f57b43;fill-opacity:1;fill-rule:nonzero;stroke:none"
         d="m 6152.42,3197.04 33.36,110.45 116.98,-14.88 z" /><path
         id="path62"
         style="fill:#f2d264;fill-opacity:1;fill-rule:nonzero;stroke:none"
         d="m 5767.55,4045.12 c -22.62,-24.07 -60.47,-25.26 -84.55,-2.64 -24.07,22.62 -25.26,60.47 -2.64,84.55 22.62,24.07 60.47,25.26 84.54,2.64 24.08,-22.62 25.27,-60.47 2.65,-84.55 z m -78.15,155.45 -81.88,-87.17 34.55,-114.49 116.43,-27.34 81.88,87.17 -34.54,114.5 -116.44,27.33" /><path
         id="path64"
         style="fill:#f2d264;fill-opacity:1;fill-rule:nonzero;stroke:none"
         d="m 6025.04,3990.27 c -14.45,-15.38 -38.63,-16.14 -54.01,-1.69 -15.38,14.45 -16.13,38.62 -1.68,54 14.44,15.38 38.62,16.14 54,1.69 15.38,-14.45 16.13,-38.62 1.69,-54 z m -49.91,99.29 -52.31,-55.68 22.06,-73.13 74.38,-17.46 52.3,55.68 -22.07,73.14 -74.36,17.45" /><path
         id="path66"
         style="fill:#f2d264;fill-opacity:1;fill-rule:nonzero;stroke:none"
         d="m 6212.16,3940.37 c -14.45,-15.38 -38.63,-16.14 -54.01,-1.69 -15.38,14.45 -16.13,38.63 -1.69,54.01 14.46,15.37 38.63,16.13 54.01,1.68 15.38,-14.45 16.13,-38.62 1.69,-54 z m -49.91,99.29 -52.31,-55.67 22.07,-73.14 74.37,-17.46 52.3,55.68 -22.06,73.13 -74.37,17.46" /><path
         id="path68"
         style="fill:#f37036;fill-opacity:1;fill-rule:nonzero;stroke:none"
         d="m 5921.52,4438.71 186.87,-41.62 -10.04,-45.08 -186.87,41.62 10.04,45.08" /><path
         id="path70"
         style="fill:#f37036;fill-opacity:1;fill-rule:nonzero;stroke:none"
         d="m 5909.04,4382.67 186.87,-41.62 -10.04,-45.08 -186.87,41.62 10.04,45.08" /><path
         id="path72"
         style="fill:#382d88;fill-opacity:1;fill-rule:nonzero;stroke:none"
         d="m 6214.49,4485.54 -351.5,78.29 21.95,98.56 351.49,-78.29 -21.94,-98.56" /><path
         id="path74"
         style="fill:#9d8acd;fill-opacity:1;fill-rule:nonzero;stroke:none"
         d="m 6193.25,4505.54 -302.55,67.39 15.35,68.92 302.55,-67.39 -15.35,-68.92" /><path
         id="path76"
         style="fill:#382d88;fill-opacity:1;fill-rule:nonzero;stroke:none"
         d="m 5915.58,4585.77 -11.91,2.66 10.22,45.86 11.9,-2.65 -10.21,-45.87" /><path
         id="path78"
         style="fill:#382d88;fill-opacity:1;fill-rule:nonzero;stroke:none"
         d="m 5928.64,4570.28 -11.9,2.65 10.21,45.87 11.91,-2.65 -10.22,-45.87" /><path
         id="path80"
         style="fill:#382d88;fill-opacity:1;fill-rule:nonzero;stroke:none"
         d="m 5947.05,4578.76 -11.9,2.65 10.22,45.87 11.9,-2.65 -10.22,-45.87" /><path
         id="path82"
         style="fill:#382d88;fill-opacity:1;fill-rule:nonzero;stroke:none"
         d="m 5960.13,4563.27 -11.91,2.65 10.22,45.87 11.9,-2.65 -10.21,-45.87" /><path
         id="path84"
         style="fill:#382d88;fill-opacity:1;fill-rule:nonzero;stroke:none"
         d="m 5978.53,4571.75 -11.9,2.65 10.22,45.87 11.9,-2.65 -10.22,-45.87" /><path
         id="path86"
         style="fill:#382d88;fill-opacity:1;fill-rule:nonzero;stroke:none"
         d="m 5991.61,4556.26 -11.9,2.65 10.21,45.87 11.91,-2.65 -10.22,-45.87" /><path
         id="path88"
         style="fill:#382d88;fill-opacity:1;fill-rule:nonzero;stroke:none"
         d="m 6010.02,4564.74 -11.91,2.65 10.22,45.87 11.9,-2.65 -10.21,-45.87" /><path
         id="path90"
         style="fill:#382d88;fill-opacity:1;fill-rule:nonzero;stroke:none"
         d="m 6023.09,4549.25 -11.91,2.65 10.22,45.87 11.9,-2.65 -10.21,-45.87" /><path
         id="path92"
         style="fill:#382d88;fill-opacity:1;fill-rule:nonzero;stroke:none"
         d="m 6041.5,4557.73 -11.9,2.65 10.21,45.87 11.91,-2.66 -10.22,-45.86" /><path
         id="path94"
         style="fill:#382d88;fill-opacity:1;fill-rule:nonzero;stroke:none"
         d="m 6054.57,4542.24 -11.9,2.65 10.21,45.87 11.9,-2.65 -10.21,-45.87" /><path
         id="path96"
         style="fill:#382d88;fill-opacity:1;fill-rule:nonzero;stroke:none"
         d="m 6072.88,4550.74 -11.9,2.65 10.21,45.86 11.91,-2.65 -10.22,-45.86" /><path
         id="path98"
         style="fill:#382d88;fill-opacity:1;fill-rule:nonzero;stroke:none"
         d="m 6085.95,4535.25 -11.91,2.65 10.22,45.87 11.9,-2.66 -10.21,-45.86" /><path
         id="path100"
         style="fill:#382d88;fill-opacity:1;fill-rule:nonzero;stroke:none"
         d="m 6104.35,4543.73 -11.9,2.65 10.22,45.86 11.91,-2.65 -10.23,-45.86" /><path
         id="path102"
         style="fill:#382d88;fill-opacity:1;fill-rule:nonzero;stroke:none"
         d="m 6117.43,4528.24 -11.9,2.65 10.21,45.86 11.91,-2.65 -10.22,-45.86" /><path
         id="path104"
         style="fill:#382d88;fill-opacity:1;fill-rule:nonzero;stroke:none"
         d="m 6135.84,4536.71 -11.91,2.66 10.22,45.86 11.9,-2.65 -10.21,-45.87" /><path
         id="path106"
         style="fill:#382d88;fill-opacity:1;fill-rule:nonzero;stroke:none"
         d="m 6148.92,4521.23 -11.91,2.65 10.22,45.86 11.9,-2.65 -10.21,-45.86" /><path
         id="path108"
         style="fill:#382d88;fill-opacity:1;fill-rule:nonzero;stroke:none"
         d="m 6167.32,4529.7 -11.9,2.65 10.21,45.87 11.91,-2.65 -10.22,-45.87" /><path
         id="path110"
         style="fill:#382d88;fill-opacity:1;fill-rule:nonzero;stroke:none"
         d="m 6179.18,4550.72 12.39,-2.76 -1.59,-11.76 c 1.47,1.13 2.61,2.75 3.04,4.7 l 2.52,11.29 c 0.98,4.43 -1.81,8.83 -6.24,9.81 l -2.1,0.47 c -4.44,0.99 -8.82,-1.81 -9.81,-6.24 l -2.52,-11.29 c -0.44,-1.96 -0.1,-3.89 0.75,-5.54 l 3.56,11.32" /><path
         id="path112"
         style="fill:#382d88;fill-opacity:1;fill-rule:nonzero;stroke:none"
         d="m 6170.69,4505.66 2.88,6.91 6.89,-1.53 -0.32,-7.47 z m 19.25,39.99 -10.26,2.29 -13.96,-46.9 16.96,-3.78 7.26,48.39" /><path
         id="path114"
         style="fill:#382d88;fill-opacity:1;fill-rule:nonzero;stroke:none"
         d="m 6084.26,4735.46 -76.93,-76.41 114.15,-25.42 z" /><path
         id="path116"
         style="fill:#f2d264;fill-opacity:1;fill-rule:nonzero;stroke:none"
         d="m 6019.05,4847.42 -68.18,-43.35 -11.3,17.77 68.18,43.35 11.3,-17.77" /><path
         id="path118"
         style="fill:#f2d264;fill-opacity:1;fill-rule:nonzero;stroke:none"
         d="m 5966.52,4874.37 43.35,-68.18 -17.77,-11.3 -43.35,68.19 17.77,11.29" /><path
         id="path120"
         style="fill:#f3d0ea;fill-opacity:1;fill-rule:nonzero;stroke:none"
         d="m 5992.16,4892.29 c -31.8,7.08 -63.43,-13.02 -70.51,-44.82 -7.08,-31.79 13.03,-63.42 44.81,-70.5 31.8,-7.08 63.43,13.03 70.51,44.82 7.08,31.8 -13.03,63.42 -44.81,70.5 z m -27.18,-122 c -35.48,7.9 -57.92,43.19 -50.01,78.67 7.9,35.49 43.19,57.92 78.67,50.02 35.48,-7.91 57.91,-43.2 50.01,-78.68 -7.9,-35.48 -43.19,-57.92 -78.67,-50.01" /><path
         id="path122"
         style="fill:#f3d0ea;fill-opacity:1;fill-rule:nonzero;stroke:none"
         d="m 5996.17,4910.32 c -41.74,9.3 -83.26,-17.09 -92.55,-58.83 -9.29,-41.73 17.09,-83.25 58.83,-92.55 41.74,-9.29 83.25,17.1 92.55,58.83 9.3,41.74 -17.09,83.26 -58.83,92.55 z m -35.2,-158.06 c -45.43,10.12 -74.15,55.29 -64.04,100.72 10.12,45.43 55.31,74.15 100.73,64.03 45.43,-10.12 74.15,-55.3 64.03,-100.72 -10.12,-45.43 -55.3,-74.15 -100.72,-64.03" /><path
         id="path124"
         style="fill:#f2d264;fill-opacity:1;fill-rule:nonzero;stroke:none"
         d="m 6261.11,4793.51 -68.18,-43.35 -11.3,17.77 68.18,43.35 11.3,-17.77" /><path
         id="path126"
         style="fill:#f2d264;fill-opacity:1;fill-rule:nonzero;stroke:none"
         d="m 6208.58,4820.46 43.35,-68.18 -17.77,-11.3 -43.35,68.18 17.77,11.3" /><path
         id="path128"
         style="fill:#f3d0ea;fill-opacity:1;fill-rule:nonzero;stroke:none"
         d="m 6234.21,4838.38 c -31.79,7.08 -63.41,-13.03 -70.49,-44.82 -7.08,-31.79 13.02,-63.42 44.8,-70.5 31.8,-7.08 63.42,13.03 70.51,44.82 7.08,31.79 -13.02,63.42 -44.82,70.5 z m -27.17,-122 c -35.48,7.9 -57.91,43.19 -50.01,78.67 7.9,35.48 43.19,57.91 78.67,50.01 35.48,-7.9 57.91,-43.19 50.01,-78.67 -7.9,-35.48 -43.19,-57.92 -78.67,-50.01" /><path
         id="path130"
         style="fill:#f3d0ea;fill-opacity:1;fill-rule:nonzero;stroke:none"
         d="m 6238.22,4856.41 c -41.73,9.29 -83.25,-17.1 -92.54,-58.83 -9.29,-41.74 17.09,-83.25 58.83,-92.55 41.74,-9.3 83.26,17.1 92.55,58.83 9.3,41.74 -17.09,83.25 -58.84,92.55 z m -35.2,-158.07 c -45.42,10.12 -74.14,55.3 -64.03,100.73 10.12,45.42 55.31,74.14 100.73,64.02 45.42,-10.11 74.15,-55.3 64.03,-100.72 -10.12,-45.42 -55.3,-74.14 -100.73,-64.03" /><path
         id="path132"
         style="fill:#382d88;fill-opacity:1;fill-rule:nonzero;stroke:none"
         d="m 6419.37,4582.71 -34.01,7.58 26.95,121.01 34.02,-7.58 -26.96,-121.01" /><path
         id="path134"
         style="fill:#6b50ad;fill-opacity:1;fill-rule:nonzero;stroke:none"
         d="m 6390.75,4534.36 -34.01,7.57 50.17,225.29 34.02,-7.58 -50.18,-225.28" /><path
         id="path136"
         style="fill:#382d88;fill-opacity:1;fill-rule:nonzero;stroke:none"
         d="m 5747.21,4859.43 34.01,-7.57 -26.95,-121.02 -34.02,7.58 26.96,121.01" /><path
         id="path138"
         style="fill:#6b50ad;fill-opacity:1;fill-rule:nonzero;stroke:none"
         d="m 5775.83,4907.78 34.01,-7.57 -50.17,-225.29 -34.02,7.58 50.18,225.28" /><path
         id="path140"
         style="fill:#f37036;fill-opacity:1;fill-rule:nonzero;stroke:none"
         d="m 6214.43,5206.11 c -0.5,0.1 -1.03,0.23 -1.55,0.34 -28.08,5.95 -56.96,5.19 -81.35,-2.15 -2.72,-0.82 -16.25,-5.28 -13.88,-12.03 1.65,-4.73 9.67,-8.64 22.61,-11.06 30.58,-5.67 61.13,-7.34 90.78,-5 8.88,0.72 18.95,1.87 27.64,4.95 -1.49,2.67 -3.6,5.39 -6.53,8.06 -8.14,7.45 -20.82,13.12 -37.72,16.89 z m -7,-58.34 c -7.33,1.63 -14.82,2.34 -21.53,2.81 -26.76,1.9 -46.65,-0.28 -53.21,-5.8 -1.54,-1.31 -2.28,-2.75 -2.27,-4.44 0.96,-3.04 16.21,-4.59 24.38,-5.43 2.84,-0.28 5.51,-0.55 7.86,-0.87 28.64,-3.84 51.81,-3.02 69.14,2.42 -3.83,3.49 -9.21,6.58 -15.54,8.81 -2.88,1.01 -5.84,1.83 -8.83,2.5 z m -28.18,-36.74 c -9.44,2.11 -20.74,0.83 -29.82,-1.03 -4.49,-0.91 -7.36,-3.24 -7.38,-3.97 1.47,-1.3 3.46,-1.69 5.26,-2 15.65,-2.65 31.7,-3.4 46.86,-2.23 -1.05,1.58 -2.32,2.99 -3.81,4.2 -3.1,2.51 -6.92,4.1 -11.11,5.03 z m -19.49,-56.76 -12.86,2.86 c 18.78,2.64 40.86,13.17 46.94,22.5 3.51,5.36 4.44,11.01 2.77,16.78 -16.18,-1.4 -33.41,-0.67 -50.16,2.18 -2.66,0.45 -5.63,1.09 -7.86,2.87 -2.89,2.31 -2.8,4.77 -2.5,6.03 0.99,4 6.78,6.91 11.75,7.93 21.11,4.3 36.72,2.51 46.47,-5.36 2.63,-2.13 4.74,-4.69 6.29,-7.64 0.08,0.01 0.17,0.02 0.26,0.03 12.92,1.51 22.28,4.31 28.63,8.54 7.4,4.95 10.3,12.33 7.39,18.81 -0.3,0.66 -0.66,1.34 -1.08,2 -18.46,-6.24 -43.21,-7.34 -73.76,-3.25 -2.29,0.31 -4.9,0.57 -7.64,0.85 -13.68,1.4 -27.83,2.82 -29.99,10.48 -0.11,3.9 1.27,6.72 4.02,9.04 10.73,9.04 40.73,8.38 57.67,7.19 9.89,-0.68 21.45,-1.9 32.14,-5.68 8.09,-2.86 14.89,-7.04 19.46,-11.82 1.48,0.6 2.9,1.24 4.26,1.92 11.07,5.52 18.46,14.93 19.76,25.15 0.37,2.87 0.33,6.4 -0.81,10.23 -9.32,-3.27 -19.83,-4.47 -29.06,-5.21 -30.25,-2.41 -61.39,-0.69 -92.55,5.08 -15.86,3 -25,7.99 -27.45,15.02 -2.68,7.63 3.87,14.65 17.54,18.77 25.4,7.65 55.46,8.46 84.62,2.27 18.64,-3.89 33.11,-10.33 42.38,-18.79 3.21,-2.95 5.79,-6.17 7.69,-9.6 9.14,4.69 15.01,12.53 16.26,21.86 1.46,10.98 -3.54,22.08 -13.7,30.45 -13.02,10.71 -33.66,17.7 -56.63,19.14 l -3.8,0.23 0.91,3.32 c 4.96,18.06 5.53,38.23 6.07,57.73 0.44,15.67 0.86,30.47 3.43,43.84 l 6.02,-1.19 c -2.5,-12.97 -2.91,-27.58 -3.34,-43.03 -0.53,-18.65 -1.07,-37.91 -5.41,-55.65 22.88,-2.06 43.38,-9.37 56.73,-20.36 11.56,-9.52 17.46,-22.74 15.78,-35.39 -1.51,-11.32 -8.73,-20.77 -19.97,-26.22 1.47,-4.3 1.94,-8.81 1.35,-13.38 -1.52,-11.92 -10.01,-22.82 -22.69,-29.16 -1.21,-0.6 -2.46,-1.18 -3.74,-1.73 0.45,-0.73 0.84,-1.47 1.18,-2.22 3.98,-8.89 0.34,-18.78 -9.29,-25.22 -7.02,-4.68 -17.03,-7.77 -30.57,-9.43 1.85,-6.98 0.63,-14 -3.54,-20.4 -6.98,-10.71 -21.7,-19.07 -39.37,-22.37" /><path
         id="path142"
         style="fill:#f37036;fill-opacity:1;fill-rule:nonzero;stroke:none"
         d="m 6237.53,5355.44 c 1.98,8.89 -4.43,17.88 -14.32,20.08 -9.88,2.21 -19.51,-3.22 -21.48,-12.11 -1.98,-8.89 4.42,-17.88 14.31,-20.08 9.89,-2.2 19.51,3.22 21.49,12.11" /><path
         id="path144"
         style="fill:#6b50ad;fill-opacity:1;fill-rule:nonzero;stroke:none"
         d="m 6213.3,4999.53 c 8.04,36.1 -14.71,71.89 -50.81,79.93 -36.1,8.04 -71.89,-14.71 -79.93,-50.81 -8.04,-36.1 122.7,-65.22 130.74,-29.12" /><path
         id="path146"
         style="fill:#6b50ad;fill-opacity:1;fill-rule:nonzero;stroke:none"
         d="m 6658.52,5181.32 c -8.15,-22.53 -7.73,-47.29 -6.42,-66.45 1.46,-21.44 5.45,-48.1 23.39,-64.02 9.18,-8.14 23.76,-11.31 36.28,-7.89 9.12,2.49 15.51,8.11 18,15.84 2.29,7.07 1.25,14.97 -0.08,21.76 -8.02,41.28 -34.99,79.22 -71.17,100.76 z m -105.77,-49.31 c -6.96,-28.03 -4.04,-58.43 8.31,-84.57 6.58,-13.91 14.74,-23.74 24.28,-29.23 11.36,-6.54 25.39,-6.3 34.09,0.57 9.93,7.85 11.74,22.2 11.94,30.06 0.82,32.54 -19.06,64.19 -48.32,76.96 -9.61,4.19 -19.93,6.16 -30.3,6.21 z m -67.16,-120.12 c -1.21,0.07 -2.37,0.68 -3.11,1.75 -20.24,29.28 -17.43,71.74 6.52,98.79 14.5,16.34 35.64,25.94 57.45,27.5 0.21,0.68 0.41,1.36 0.63,2.04 9.55,30.09 34.61,60.72 69.07,61.32 11.77,0.19 24.27,-3.21 38.33,-10.4 10.37,21.83 28.03,37.56 48.37,42.72 23.33,5.92 50.55,-2.41 71.04,-21.73 20.4,-19.24 31.55,-45.81 38.15,-64.13 10.4,-28.85 17.2,-58.95 20.2,-89.48 0.23,-2.25 -1.42,-4.24 -3.66,-4.47 -2.27,-0.24 -4.25,1.43 -4.47,3.67 -2.94,29.85 -9.58,59.3 -19.76,87.5 -6.32,17.53 -16.94,42.92 -36.08,60.96 -18.48,17.42 -42.77,24.98 -63.41,19.76 -17.81,-4.52 -33.9,-19.1 -43.19,-38.73 39.17,-22.8 67.37,-62.25 76.04,-106.83 1.53,-7.82 2.7,-17 -0.15,-25.84 -3.37,-10.45 -11.76,-17.98 -23.63,-21.22 -15.06,-4.12 -32.69,-0.24 -43.86,9.67 -20.17,17.89 -24.55,46.58 -26.14,69.57 -1.37,20.32 -1.78,46.72 7.35,71.02 -13.05,6.76 -24.46,9.96 -34.99,9.79 -29.99,-0.53 -52.68,-28.74 -61.21,-54.99 10.65,-0.25 21.32,-2.5 31.24,-6.84 32.23,-14.07 54.12,-48.87 53.22,-84.66 -0.4,-16.04 -5.74,-28.92 -15.03,-36.26 -11.26,-8.89 -29.02,-9.41 -43.25,-1.25 -11.01,6.34 -20.29,17.39 -27.59,32.82 -12.8,27.08 -16.09,58.46 -9.42,87.63 -18.72,-1.98 -36.66,-10.5 -49.12,-24.56 -21.19,-23.92 -23.79,-62.88 -5.93,-88.71 1.29,-1.86 0.82,-4.4 -1.04,-5.69 -0.78,-0.54 -1.69,-0.77 -2.57,-0.72" /><path
         id="path148"
         style="fill:#6b50ad;fill-opacity:1;fill-rule:nonzero;stroke:none"
         d="m 5779.67,5294.99 c -0.37,0.02 -0.74,0.03 -1.13,0.01 -4.03,-0.13 -7.98,-2.18 -11.32,-4.17 -20.4,-12.18 -35.56,-33.51 -40.66,-56.77 13.17,0.46 25.84,5.3 35.6,9.59 11.36,4.99 25.05,12.34 30.1,24.99 2.46,6.15 1.34,14.47 -2.7,20.23 -1.56,2.22 -4.84,5.81 -9.89,6.12 z m 35.39,-51.11 c -4.08,0.25 -8.14,-0.77 -10.74,-1.63 -17.68,-5.87 -30.86,-22.7 -32.05,-40.91 -0.37,-5.47 0.42,-10.99 2.17,-16.21 16.15,1.98 31.58,9.45 43.06,20.98 6.19,6.21 9.87,12.44 10.96,18.51 1.25,7 -1.39,14.06 -6.4,17.18 -2.15,1.34 -4.58,1.93 -7,2.08 z m -4,-96.97 c -5.02,0.31 -10.01,1.38 -14.74,3.27 -12.06,4.81 -21.77,14.55 -27.29,26.32 -0.06,0 -0.1,-0.01 -0.16,-0.01 -19.3,-0.8 -42.11,7.39 -49.66,27.26 -2.41,6.35 -3.14,13.76 -2.19,22.57 -14.02,1.8 -26.09,8.62 -33.06,18.91 -8.29,12.29 -9.17,29.74 -2.29,45.56 6.78,15.56 19.53,27.29 28.54,34.75 14.11,11.68 29.63,21.59 46.16,29.45 2.04,0.96 4.48,0.1 5.45,-1.94 0.97,-2.04 0.1,-4.48 -1.94,-5.45 -15.92,-7.56 -30.88,-17.1 -44.45,-28.35 -8.36,-6.94 -20.19,-17.77 -26.26,-31.73 -5.77,-13.27 -5.18,-27.72 1.57,-37.72 5.58,-8.25 15.84,-13.89 27.53,-15.39 5.26,26.25 21.68,49.67 44.76,63.44 3.98,2.37 9.31,5.13 15.23,5.33 6.96,0.16 13.54,-3.27 17.99,-9.61 5.63,-8.02 7.08,-19.25 3.6,-27.96 -6.15,-15.4 -21.62,-23.82 -34.4,-29.44 -10.84,-4.76 -25.1,-10.17 -40.26,-10.32 -0.86,-7.69 -0.32,-13.98 1.66,-19.2 5.75,-15.13 23.83,-21.93 39.14,-22.02 -1.59,5.56 -2.27,11.4 -1.89,17.25 1.42,21.44 16.9,41.24 37.64,48.13 9.5,3.15 18.25,2.7 24.64,-1.26 7.91,-4.93 11.97,-15.2 10.13,-25.56 -1.38,-7.75 -5.83,-15.44 -13.21,-22.85 -12.19,-12.25 -28.38,-20.36 -45.44,-22.99 4.83,-8.76 12.41,-15.96 21.48,-19.58 16.9,-6.72 38.26,-0.6 48.66,13.93 1.32,1.85 3.88,2.25 5.7,0.95 1.84,-1.31 2.27,-3.86 0.95,-5.7 -9.76,-13.67 -26.86,-21.08 -43.59,-20.04" /><path
         id="path150"
         style="fill:#f2d264;fill-opacity:1;fill-rule:nonzero;stroke:none"
         d="m 4147.37,2763.98 c -8.05,15.19 -16.36,29.97 -24.86,44.31 l 24.86,-44.31" /><path
         id="path152"
         style="fill:#f2d264;fill-opacity:1;fill-rule:nonzero;stroke:none"
         d="m 4144.87,2670.22 -22.71,138.64 c -42.31,71.22 -89.02,131.46 -129.16,175.59 -29.47,-43.86 -21.46,-163.51 -21.46,-163.51 -16.88,122.15 -9.92,160.66 -15.29,200.68 -64.01,59.8 -150.42,83.6 -220.65,113.85 49.46,-140.28 53.6,-177.03 53.6,-177.03 -22.77,85.17 -61.08,140.33 -83.92,189.35 -177.44,68.27 -256.94,29.43 -256.94,29.43 11.74,-60.8 54.18,-192.88 68.9,-244.1 77.88,-46.74 182,-88.4 182,-88.4 -51.61,7.54 -122.08,34.87 -172.49,56.64 22.93,-73.84 19.94,-61.59 49.29,-118.13 78.32,-50.8 228.14,-98.91 228.14,-98.91 -62.3,4.55 -153.44,35.71 -203.48,54.4 56.26,-95.25 122.72,-167.47 198.66,-229.19 75.89,-19.54 155.07,-30.37 155.07,-30.37 -34.82,-3.72 -79.86,-0.66 -121.82,4.42 88.64,-66.47 189.18,-121.94 300.57,-184.42 l 106.13,-23.81 6.5,153.68 c -5.29,120.7 -45.88,235.54 -97.74,333.62 l -3.2,-92.43" /><path
         id="path154"
         style="fill:#fef3fa;fill-opacity:1;fill-rule:nonzero;stroke:none"
         d="m 4090.1,2513.36 c 24.66,-32.19 48.61,-65.1 70.87,-99.38 22.28,-34.22 42.72,-70.13 58.42,-108.46 l -1.64,-0.78 c -16.71,37.58 -38,72.52 -61.11,105.76 -23.09,33.31 -47.83,65.22 -73.28,96.41 -50.75,62.55 -104.23,122.41 -157.89,182.11 -53.62,59.75 -108.78,117.99 -160.19,180.36 -25.72,31.16 -51.09,62.72 -75.43,95.24 -24.44,32.44 -47.83,65.88 -69.56,100.56 l 1.41,1.2 c 51.11,-62.56 103.57,-123.21 156.56,-183.51 53.1,-60.15 104.86,-121.88 157.43,-182.88 52.43,-61.13 104.77,-122.51 154.41,-186.63" /><path
         id="path156"
         style="fill:#9d8acd;fill-opacity:1;fill-rule:nonzero;stroke:none"
         d="m 3992.9,2258.45 c 1.21,148.54 10.81,211.1 -0.02,260.12 -85.43,63.47 -178.29,104.17 -268.33,129.64 75.84,-166.51 57.1,-284.18 57.1,-284.18 -4.06,120.49 -62.51,237.02 -95.9,294.25 -226.64,54.14 -425.15,17.5 -425.15,17.5 20.89,-73.87 43.1,-141.06 66.66,-202.44 101.23,-44.71 234.39,-78.49 234.39,-78.49 -64.63,0.37 -154.66,22.15 -219.31,40.51 36.09,-88.2 75.21,-163.72 117.43,-229.18 102.19,-49.7 292.56,-83.53 292.56,-83.53 -77.55,-5.23 -193.56,17.71 -257.41,32.27 79.55,-109.06 169.32,-187.61 269.72,-251.37 95.93,-11.1 195,-10.75 195,-10.75 -42.68,-10.73 -98.71,-14.82 -151.16,-15.83 116.6,-67.47 246.77,-119.11 391.1,-177.6 l 133.78,-11.14 -8.01,193.05 c -37.04,289.47 -147.07,476.82 -283.12,597.32 -31.87,-59.92 -49.33,-220.15 -49.33,-220.15" /><path
         id="path158"
         style="fill:#6758b1;fill-opacity:1;fill-rule:nonzero;stroke:none"
         d="m 4303.62,1721.16 c -24.6,43.99 -54.59,83.88 -86.65,121.36 -32.04,37.53 -65.99,73.04 -100.73,107.53 -69.32,69.2 -141.74,134.58 -214.36,199.73 -72.57,65.21 -146.9,128.26 -217.02,197.15 -35.08,34.38 -69.75,69.35 -103.27,105.7 -33.62,36.22 -66.05,73.88 -96.55,113.37 l 1.61,1.76 c 69.78,-69.17 141,-135.7 212.87,-201.72 71.97,-65.8 142.46,-133.82 213.86,-200.77 71.25,-67.14 142.42,-134.62 210.52,-205.99 33.87,-35.88 66.94,-72.77 98.06,-111.68 31.14,-38.81 60.18,-80.07 83.61,-125.18 l -1.95,-1.26" /><path
         id="path160"
         style="fill:#6b50ad;fill-opacity:1;fill-rule:nonzero;stroke:none"
         d="m 7460.53,3515.9 c -146.45,0 -265.16,118.72 -265.16,265.16 0,146.44 118.71,265.16 265.16,265.16 146.44,0 265.16,-118.72 265.16,-265.16 0,-146.44 -118.72,-265.16 -265.16,-265.16 z m 490.29,371.6 h -65.27 c -10.58,42.38 -27.32,82.32 -49.24,118.82 l 46.17,46.17 c 15.32,15.31 15.32,40.15 0,55.47 l -95.05,95.05 c -15.32,15.32 -40.16,15.32 -55.48,0 l -46.16,-46.17 c -36.49,21.92 -76.44,38.65 -118.83,49.24 v 65.27 c 0,21.67 -17.56,39.23 -39.23,39.23 h -134.41 c -21.67,0 -39.23,-17.56 -39.23,-39.23 v -65.27 c -42.39,-10.59 -82.33,-27.32 -118.82,-49.24 l -46.17,46.17 c -15.32,15.32 -40.16,15.32 -55.48,0 l -95.05,-95.05 c -15.31,-15.32 -15.31,-40.16 0,-55.47 l 46.18,-46.17 c -21.93,-36.5 -38.66,-76.44 -49.24,-118.82 h -65.28 c -21.66,0 -39.22,-17.57 -39.22,-39.23 v -134.42 c 0,-21.67 17.56,-39.23 39.22,-39.23 h 65.28 c 10.58,-42.39 27.31,-82.33 49.24,-118.82 l -46.18,-46.17 c -15.31,-15.32 -15.31,-40.16 0,-55.47 l 95.05,-95.05 c 15.32,-15.33 40.16,-15.33 55.48,0 l 46.17,46.16 c 36.49,-21.91 76.43,-38.65 118.82,-49.23 v -65.28 c 0,-21.66 17.56,-39.22 39.23,-39.22 h 134.41 c 21.67,0 39.23,17.56 39.23,39.22 v 65.28 c 42.39,10.58 82.34,27.32 118.83,49.23 l 46.16,-46.16 c 15.32,-15.33 40.16,-15.33 55.48,0 l 95.05,95.05 c 15.32,15.31 15.32,40.15 0,55.47 l -46.17,46.17 c 21.92,36.49 38.66,76.43 49.24,118.82 h 65.27 c 21.67,0 39.23,17.56 39.23,39.23 v 134.42 c 0,21.66 -17.56,39.23 -39.23,39.23" /><path
         id="path162"
         style="fill:#9d8acd;fill-opacity:1;fill-rule:nonzero;stroke:none"
         d="m 8158.13,2389.18 c 16.55,14.48 32.51,29.22 47.85,44.15 l -47.85,-44.15" /><path
         id="path164"
         style="fill:#9d8acd;fill-opacity:1;fill-rule:nonzero;stroke:none"
         d="m 8038.98,2371.97 167.6,61.96 c 76.14,74.22 136.97,152.1 179.63,217.35 -64.92,31.1 -213.33,-6.35 -213.33,-6.35 148.67,50.27 199.53,49.13 248.29,65.38 54.68,101.72 56.63,226.48 71.98,330.29 -160.97,-99.32 -206,-113.16 -206,-113.16 100.09,50.28 157.23,115.41 211.7,157.82 28.47,260.47 -46.38,361.87 -46.38,361.87 -72.92,-29.64 -225.83,-117.46 -285.69,-149.11 -33.68,-118.02 -52.41,-271.22 -52.41,-271.22 -7.26,73.05 4.33,176.54 15.42,251.07 -85.75,-48 -71.25,-41.17 -133.07,-94.22 -38.65,-119.53 -50.68,-337.36 -50.68,-337.36 -14.51,87.17 -4.8,220.11 2.51,293.44 -101.91,-98.81 -171.46,-206.66 -224.67,-325.31 0,-109.27 12.07,-221.16 12.07,-221.16 -16,47.33 -26.79,110.29 -34.02,169.46 -55.09,-137.25 -92.42,-288.53 -135.06,-456.39 l 4.44,-152.03 196.08,24.88 c 150.62,33.93 282.35,115.39 389.3,208.73 l -117.71,-15.94" /><path
         id="path166"
         style="fill:#6758b1;fill-opacity:1;fill-rule:nonzero;stroke:none"
         d="m 7823.21,2413.14 c -32.63,-41.2 -66.37,-81.58 -102.39,-119.93 -35.94,-38.36 -74.62,-74.54 -117.89,-104.71 l -1.52,2.1 c 42,31.39 79.16,68.54 113.62,107.83 34.53,39.28 66.76,80.54 97.85,122.6 62.44,84 120.61,171.16 178.52,258.55 57.97,87.32 113.55,176.45 175.57,261.31 30.96,42.46 62.54,84.5 95.69,125.34 32.98,40.94 67.59,80.67 104.29,118.37 l 1.98,-1.68 c -62.34,-84.5 -121.84,-170.41 -180.73,-257.01 -58.65,-86.71 -119.73,-171.91 -179.64,-258.06 -60.09,-86 -120.56,-171.92 -185.35,-254.71" /><path
         id="path168"
         style="fill:#f57b43;fill-opacity:1;fill-rule:nonzero;stroke:none"
         d="m 7697.33,2860.98 c 23.55,74.02 48.13,147.63 70.66,221.76 22.72,74.11 46.02,147.87 71.65,221.25 l -1.77,0.75 c -17.71,-34.68 -33.52,-70.33 -47.89,-106.5 -14.52,-36.12 -27.67,-72.77 -40.28,-109.54 -25.32,-73.57 -45.15,-148.75 -67.06,-223.18 -21.86,-74.45 -43.96,-148.81 -69.76,-221.85 -12.8,-36.55 -26.57,-72.77 -42.41,-108.09 -15.78,-35.32 -33.95,-69.71 -56.79,-101.09 l 1.53,-1.14 c 24.01,30.78 43.46,64.82 60.49,99.8 17.1,34.99 32.14,70.93 46.2,107.2 27.74,72.7 51.72,146.68 75.43,220.63 z m 165.93,-165.6 c -55.23,-89.4 -130.6,-175.78 -229.71,-232.7 l -133.23,-60.44 -36.36,106.55 c -6.52,128.03 -13.18,243.18 -4.22,352.28 18.05,-40.26 39.44,-82.43 61.1,-112.42 0,0 -32.99,76.5 -56.88,153.78 11.71,95.53 37.34,187.01 87.83,279.16 10.85,-53.46 33.02,-149.6 62.33,-208.08 0,0 -39.09,156.68 -37.87,249.66 32.13,51.03 23.37,43.03 73.52,95.72 8.44,-55.14 22.86,-130.87 43.96,-180.94 0,0 -20.24,112.44 -22.21,203.27 35.42,35.46 124.37,130.98 169.47,167.88 0,0 75.08,-55.36 111.86,-245.79 -29.24,-41.89 -55.43,-100.44 -115.22,-157.87 0,0 28.82,19.62 120.96,125.05 11.82,-76.77 37.71,-165.44 21.27,-249.31 -30.94,-22.16 -67.16,-32.46 -161.32,-100.5 0,0 96.78,58.91 149.49,51.11 -15.9,-55.47 -41.91,-123.85 -79.54,-192.97 l -104.99,-80.45 z m 24.93,42.88 c -7.58,-13.9 -15.64,-27.82 -24.18,-41.68 l 24.18,41.68" /><path
         id="path170"
         style="fill:#f2d264;fill-opacity:1;fill-rule:nonzero;stroke:none"
         d="m 7992.79,1954.69 c 142.57,-46.27 199.56,-75.5 250.4,-78.75 89.86,72.22 160.3,159.27 215.14,247.92 -185.81,-30.75 -292.77,24.95 -292.77,24.95 117.35,-32.13 249.2,-4.87 315.52,13.53 128.44,226.18 160,449.73 160,449.73 -78.12,0.03 -150.28,-3.4 -217.3,-10.03 -77.13,-94.81 -154.47,-227.09 -154.47,-227.09 22.11,69.06 73.38,158.83 112.83,222.45 -97.05,-11.92 -182.91,-30.91 -260.14,-56.27 -82.26,-94.33 -178.93,-287.83 -178.93,-287.83 21.08,84.58 82.23,201.79 117.75,265.73 -131.78,-52.11 -237.61,-124.41 -332.79,-212.56 -42.99,-99.3 -76.01,-205.45 -76.01,-205.45 4.04,48.94 18.97,110.15 35.66,166.59 -104.2,-104.37 -197.76,-228.04 -302.65,-364.81 l -55.77,-139.81 188.52,-49.88 c 291.13,-48.03 508.52,13 670.31,122.12 -46.94,52.26 -195.3,119.46 -195.3,119.46" /><path
         id="path172"
         style="fill:#faeba0;fill-opacity:1;fill-rule:nonzero;stroke:none"
         d="m 7370.98,1784.86 c 50.63,13 99.13,33.01 145.99,55.99 46.93,22.92 92.53,48.49 137.42,75.22 89.96,53.24 177.29,110.96 264.45,168.96 87.19,57.92 172.93,118.36 262.84,172.55 44.92,27.13 90.25,53.66 136.53,78.52 46.18,25.02 93.35,48.32 141.63,69 l 1.15,-2.25 c -90.06,-53.73 -178.1,-109.82 -265.84,-166.73 -87.58,-57.11 -176.78,-111.95 -265.28,-168.11 -88.62,-55.91 -177.54,-111.65 -269.17,-162.93 -45.94,-25.38 -92.6,-49.6 -140.52,-71.13 -47.85,-21.57 -97.34,-40.15 -148.65,-51.56 l -0.55,2.47" /><path
         id="path174"
         style="fill:#f57b43;fill-opacity:1;fill-rule:nonzero;stroke:none"
         d="m 4305.57,3264.86 c -233.64,0 -423.04,189.4 -423.04,423.04 0,233.64 189.4,423.04 423.04,423.04 233.64,0 423.03,-189.4 423.03,-423.04 0,-233.64 -189.39,-423.04 -423.03,-423.04 z m 782.21,592.85 h -104.14 c -16.88,67.63 -43.58,131.36 -78.55,189.57 l 73.66,73.66 c 24.44,24.44 24.44,64.07 0,88.5 l -151.64,151.64 c -24.44,24.45 -64.06,24.45 -88.51,0 l -73.66,-73.65 c -58.21,34.97 -121.93,61.67 -189.56,78.55 v 104.14 c 0,34.56 -28.03,62.58 -62.59,62.58 h -214.45 c -34.57,0 -62.58,-28.02 -62.58,-62.58 v -104.14 c -67.63,-16.88 -131.36,-43.58 -189.57,-78.55 l -73.66,73.65 c -24.44,24.45 -64.06,24.45 -88.51,0 l -151.64,-151.64 c -24.44,-24.43 -24.44,-64.06 0,-88.5 l 73.66,-73.66 c -34.97,-58.21 -61.67,-121.94 -78.55,-189.57 h -104.14 c -34.56,0 -62.58,-28.02 -62.58,-62.58 v -214.46 c 0,-34.56 28.02,-62.58 62.58,-62.58 h 104.14 c 16.88,-67.63 43.58,-131.35 78.55,-189.56 l -73.66,-73.67 c -24.44,-24.43 -24.44,-64.06 0,-88.5 l 151.64,-151.64 c 24.45,-24.44 64.07,-24.44 88.51,0 l 73.66,73.65 c 58.21,-34.97 121.94,-61.67 189.57,-78.55 v -104.13 c 0,-34.57 28.01,-62.59 62.58,-62.59 h 214.45 c 34.56,0 62.59,28.02 62.59,62.59 v 104.13 c 67.63,16.88 131.35,43.58 189.56,78.55 l 73.66,-73.65 c 24.45,-24.44 64.07,-24.44 88.51,0 l 151.64,151.64 c 24.44,24.44 24.44,64.07 0,88.5 l -73.66,73.67 c 34.97,58.21 61.67,121.93 78.55,189.56 h 104.14 c 34.56,0 62.58,28.02 62.58,62.58 v 214.46 c 0,34.56 -28.02,62.58 -62.58,62.58" /><path
         id="path176"
         style="fill:#382d88;fill-opacity:1;fill-rule:nonzero;stroke:none"
         d="M 7576.5,1688.23 H 4076.56 v 2028.94 c 0,95.58 77.49,173.07 173.07,173.07 h 3153.81 c 95.57,0 173.06,-77.49 173.06,-173.07 V 1688.23" /><path
         id="path178"
         style="fill:#6b50ad;fill-opacity:1;fill-rule:nonzero;stroke:none"
         d="M 7410.37,1878.34 H 4242.69 V 3728.99 H 7410.37 V 1878.34" /><path
         id="path180"
         style="fill:#9d8acd;fill-opacity:1;fill-rule:nonzero;stroke:none"
         d="M 8218.65,1145.15 H 3434.41 l 642.15,543.08 H 7576.5 l 642.15,-543.08" /><path
         id="path182"
         style="fill:#382d88;fill-opacity:1;fill-rule:nonzero;stroke:none"
         d="M 8047.81,938.68 H 3605.26 c -94.36,0 -170.85,76.49 -170.85,170.85 v 35.62 h 4784.24 v -35.62 c 0,-94.36 -76.48,-170.85 -170.84,-170.85" /><path
         id="path184"
         style="fill:#fef3fa;fill-opacity:1;fill-rule:nonzero;stroke:none"
         d="m 4532.32,1541.33 h -193.73 c -6.02,0 -8.95,7.37 -4.58,11.51 l 60.47,57.23 c 1.23,1.18 2.87,1.82 4.58,1.82 h 185.06 c 5.78,0 8.82,-6.85 4.94,-11.13 l -51.79,-57.24 c -1.27,-1.39 -3.06,-2.19 -4.95,-2.19" /><path
         id="path186"
         style="fill:#fef3fa;fill-opacity:1;fill-rule:nonzero;stroke:none"
         d="m 4839.06,1541.33 h -195.62 c -5.67,0 -8.74,6.61 -5.11,10.95 l 47.99,57.23 c 1.27,1.51 3.13,2.38 5.11,2.38 h 186.96 c 5.37,0 8.53,-6.02 5.5,-10.44 l -39.33,-57.23 c -1.25,-1.8 -3.3,-2.89 -5.5,-2.89" /><path
         id="path188"
         style="fill:#fef3fa;fill-opacity:1;fill-rule:nonzero;stroke:none"
         d="m 5145.62,1541.33 h -197.19 c -5.23,0 -8.42,5.75 -5.67,10.18 l 35.52,57.24 c 1.21,1.95 3.35,3.14 5.65,3.14 h 188.55 c 4.88,0 8.11,-5.07 6.04,-9.49 l -26.86,-57.23 c -1.09,-2.34 -3.45,-3.84 -6.04,-3.84" /><path
         id="path190"
         style="fill:#fef3fa;fill-opacity:1;fill-rule:nonzero;stroke:none"
         d="M 5451.96,1541.33 H 5253.6 c -4.71,0 -7.95,4.78 -6.18,9.15 l 23.05,57.24 c 1.01,2.52 3.46,4.17 6.18,4.17 h 189.69 c 4.33,0 7.52,-4.07 6.46,-8.28 l -14.37,-57.24 c -0.75,-2.96 -3.42,-5.04 -6.47,-5.04" /><path
         id="path192"
         style="fill:#fef3fa;fill-opacity:1;fill-rule:nonzero;stroke:none"
         d="m 5758,1541.33 h -198.97 c -4.16,0 -7.3,3.78 -6.55,7.87 l 10.57,57.24 c 0.58,3.17 3.34,5.45 6.56,5.45 h 190.3 c 3.76,0 6.79,-3.11 6.66,-6.88 l -1.9,-57.23 c -0.13,-3.59 -3.07,-6.45 -6.67,-6.45" /><path
         id="path194"
         style="fill:#fef3fa;fill-opacity:1;fill-rule:nonzero;stroke:none"
         d="m 6063.73,1541.33 h -198.96 c -3.6,0 -6.55,2.86 -6.67,6.45 l -1.9,57.23 c -0.13,3.77 2.89,6.88 6.66,6.88 h 190.3 c 3.22,0 5.97,-2.28 6.56,-5.45 l 10.56,-57.24 c 0.76,-4.09 -2.38,-7.87 -6.55,-7.87" /><path
         id="path196"
         style="fill:#fef3fa;fill-opacity:1;fill-rule:nonzero;stroke:none"
         d="m 6369.17,1541.33 h -198.36 c -3.06,0 -5.72,2.08 -6.46,5.04 l -14.38,57.24 c -1.06,4.21 2.12,8.28 6.46,8.28 h 189.69 c 2.73,0 5.17,-1.65 6.18,-4.17 l 23.05,-57.24 c 1.76,-4.37 -1.46,-9.15 -6.18,-9.15" /><path
         id="path198"
         style="fill:#fef3fa;fill-opacity:1;fill-rule:nonzero;stroke:none"
         d="m 6674.35,1541.33 h -197.21 c -2.58,0 -4.93,1.5 -6.04,3.84 l -26.84,57.23 c -2.08,4.42 1.15,9.49 6.03,9.49 h 188.54 c 2.3,0 4.45,-1.19 5.66,-3.14 l 35.52,-57.24 c 2.75,-4.43 -0.44,-10.18 -5.66,-10.18" /><path
         id="path200"
         style="fill:#fef3fa;fill-opacity:1;fill-rule:nonzero;stroke:none"
         d="m 6979.34,1541.33 h -195.63 c -2.2,0 -4.26,1.09 -5.5,2.89 l -39.32,57.23 c -3.04,4.42 0.12,10.44 5.48,10.44 h 186.97 c 1.97,0 3.84,-0.87 5.1,-2.38 l 48,-57.23 c 3.64,-4.34 0.55,-10.95 -5.1,-10.95" /><path
         id="path202"
         style="fill:#fef3fa;fill-opacity:1;fill-rule:nonzero;stroke:none"
         d="m 7284.18,1541.33 h -193.73 c -1.89,0 -3.68,0.8 -4.94,2.19 l -51.8,57.24 c -3.89,4.28 -0.84,11.13 4.94,11.13 h 185.06 c 1.7,0 3.34,-0.64 4.58,-1.82 l 60.47,-57.23 c 4.37,-4.14 1.44,-11.51 -4.58,-11.51" /><path
         id="path204"
         style="fill:#fef3fa;fill-opacity:1;fill-rule:nonzero;stroke:none"
         d="m 4435.54,1434.4 h -209.92 c -6.03,0 -8.96,7.36 -4.58,11.5 l 71.88,68.04 c 1.23,1.17 2.88,1.83 4.58,1.83 h 199.61 c 5.78,0 8.83,-6.86 4.94,-11.15 l -61.57,-68.02 c -1.26,-1.4 -3.06,-2.2 -4.94,-2.2" /><path
         id="path206"
         style="fill:#fef3fa;fill-opacity:1;fill-rule:nonzero;stroke:none"
         d="m 4765.59,1434.4 h -211.82 c -5.66,0 -8.74,6.61 -5.11,10.95 l 57.05,68.03 c 1.27,1.51 3.14,2.39 5.11,2.39 h 201.51 c 5.37,0 8.54,-6.02 5.5,-10.44 l -46.76,-68.04 c -1.24,-1.81 -3.29,-2.89 -5.48,-2.89" /><path
         id="path208"
         style="fill:#fef3fa;fill-opacity:1;fill-rule:nonzero;stroke:none"
         d="m 5095.46,1434.4 h -213.4 c -5.22,0 -8.42,5.74 -5.66,10.19 l 42.22,68.02 c 1.21,1.97 3.36,3.16 5.67,3.16 h 203.08 c 4.89,0 8.12,-5.08 6.04,-9.5 l -31.92,-68.03 c -1.1,-2.35 -3.45,-3.84 -6.03,-3.84" /><path
         id="path210"
         style="fill:#fef3fa;fill-opacity:1;fill-rule:nonzero;stroke:none"
         d="m 4322.87,1309.92 h -228.76 c -6.03,0 -8.96,7.36 -4.58,11.51 l 86.12,81.51 c 1.23,1.18 2.87,1.83 4.58,1.83 h 216.42 c 5.77,0 8.82,-6.85 4.94,-11.14 l -73.78,-81.52 c -1.27,-1.39 -3.06,-2.19 -4.94,-2.19" /><path
         id="path212"
         style="fill:#fef3fa;fill-opacity:1;fill-rule:nonzero;stroke:none"
         d="m 4680.05,1309.92 h -230.67 c -5.65,0 -8.74,6.61 -5.1,10.94 l 68.36,81.53 c 1.27,1.5 3.13,2.38 5.1,2.38 h 218.32 c 5.37,0 8.53,-6.01 5.49,-10.44 l -56.01,-81.52 c -1.24,-1.81 -3.29,-2.89 -5.49,-2.89" /><path
         id="path214"
         style="fill:#fef3fa;fill-opacity:1;fill-rule:nonzero;stroke:none"
         d="m 5037.05,1309.92 h -232.24 c -5.22,0 -8.41,5.74 -5.66,10.18 l 50.59,81.52 c 1.22,1.96 3.36,3.15 5.66,3.15 h 219.89 c 4.89,0 8.12,-5.08 6.04,-9.5 l -38.24,-81.51 c -1.11,-2.35 -3.46,-3.84 -6.04,-3.84" /><path
         id="path216"
         style="fill:#fef3fa;fill-opacity:1;fill-rule:nonzero;stroke:none"
         d="m 5425.1,1434.4 h -214.55 c -4.72,0 -7.94,4.78 -6.19,9.16 l 27.4,68.03 c 1.01,2.52 3.46,4.18 6.18,4.18 h 204.25 c 4.33,0 7.52,-4.08 6.46,-8.29 l -17.1,-68.04 c -0.74,-2.96 -3.41,-5.04 -6.45,-5.04" /><path
         id="path218"
         style="fill:#fef3fa;fill-opacity:1;fill-rule:nonzero;stroke:none"
         d="m 6462.33,1309.92 h -1301.9 c -4.72,0 -7.94,4.77 -6.18,9.16 l 32.82,81.51 c 1.02,2.52 3.47,4.18 6.18,4.18 h 1236.27 c 2.72,0 5.17,-1.66 6.18,-4.18 l 32.82,-81.51 c 1.76,-4.39 -1.46,-9.16 -6.19,-9.16" /><path
         id="path220"
         style="fill:#fef3fa;fill-opacity:1;fill-rule:nonzero;stroke:none"
         d="m 5754.44,1434.4 h -215.15 c -4.16,0 -7.31,3.78 -6.56,7.88 l 12.57,68.03 c 0.58,3.16 3.34,5.46 6.55,5.46 h 204.86 c 3.77,0 6.79,-3.13 6.66,-6.89 l -2.27,-68.03 c -0.11,-3.6 -3.06,-6.45 -6.66,-6.45" /><path
         id="path222"
         style="fill:#fef3fa;fill-opacity:1;fill-rule:nonzero;stroke:none"
         d="m 6083.48,1434.4 h -215.15 c -3.59,0 -6.54,2.85 -6.66,6.45 l -2.27,68.03 c -0.12,3.76 2.89,6.89 6.66,6.89 h 204.86 c 3.21,0 5.96,-2.3 6.55,-5.46 l 12.57,-68.03 c 0.75,-4.1 -2.39,-7.88 -6.56,-7.88" /><path
         id="path224"
         style="fill:#fef3fa;fill-opacity:1;fill-rule:nonzero;stroke:none"
         d="m 6412.22,1434.4 h -214.54 c -3.06,0 -5.72,2.08 -6.47,5.04 l -17.09,68.04 c -1.05,4.21 2.13,8.29 6.47,8.29 h 204.23 c 2.73,0 5.17,-1.66 6.19,-4.18 l 27.39,-68.03 c 1.77,-4.38 -1.46,-9.16 -6.18,-9.16" /><path
         id="path226"
         style="fill:#fef3fa;fill-opacity:1;fill-rule:nonzero;stroke:none"
         d="m 6740.7,1434.4 h -213.39 c -2.58,0 -4.93,1.49 -6.03,3.84 l -31.93,68.03 c -2.07,4.42 1.16,9.5 6.04,9.5 h 203.1 c 2.3,0 4.44,-1.19 5.66,-3.16 l 42.22,-68.02 c 2.75,-4.45 -0.44,-10.19 -5.67,-10.19" /><path
         id="path228"
         style="fill:#fef3fa;fill-opacity:1;fill-rule:nonzero;stroke:none"
         d="m 7068.99,1434.4 h -211.8 c -2.2,0 -4.25,1.08 -5.5,2.89 l -46.75,68.04 c -3.04,4.42 0.13,10.44 5.5,10.44 h 201.51 c 1.98,0 3.84,-0.88 5.11,-2.39 l 57.04,-68.03 c 3.64,-4.34 0.56,-10.95 -5.11,-10.95" /><path
         id="path230"
         style="fill:#fef3fa;fill-opacity:1;fill-rule:nonzero;stroke:none"
         d="m 7128.84,1363.04 h -222.62 c -2.2,0 -4.25,1.09 -5.49,2.89 l -19.51,28.4 c -3.05,4.43 0.13,10.44 5.49,10.44 h 218.32 c 1.97,0 3.84,-0.88 5.11,-2.38 l 23.8,-28.4 c 3.64,-4.34 0.56,-10.95 -5.1,-10.95" /><path
         id="path232"
         style="fill:#fef3fa;fill-opacity:1;fill-rule:nonzero;stroke:none"
         d="m 7173.38,1309.92 h -230.66 c -2.19,0 -4.24,1.08 -5.48,2.89 l -21.81,31.73 c -3.04,4.42 0.13,10.44 5.5,10.44 h 225.85 c 1.97,0 3.83,-0.87 5.1,-2.39 l 26.61,-31.73 c 3.64,-4.33 0.55,-10.94 -5.11,-10.94" /><path
         id="path234"
         style="fill:#fef3fa;fill-opacity:1;fill-rule:nonzero;stroke:none"
         d="M 7528.66,1309.92 H 7299.9 c -1.87,0 -3.67,0.8 -4.94,2.19 l -28.71,31.73 c -3.88,4.29 -0.84,11.14 4.94,11.14 h 223.96 c 1.69,0 3.34,-0.66 4.58,-1.83 l 33.51,-31.72 c 4.38,-4.15 1.45,-11.51 -4.58,-11.51" /><path
         id="path236"
         style="fill:#fef3fa;fill-opacity:1;fill-rule:nonzero;stroke:none"
         d="m 6817.96,1309.92 h -232.24 c -2.59,0 -4.93,1.49 -6.03,3.84 l -14.89,31.72 c -2.08,4.42 1.16,9.5 6.04,9.5 h 227.43 c 2.31,0 4.44,-1.2 5.66,-3.15 l 19.69,-31.73 c 2.76,-4.44 -0.44,-10.18 -5.66,-10.18" /><path
         id="path238"
         style="fill:#fef3fa;fill-opacity:1;fill-rule:nonzero;stroke:none"
         d="m 7397.15,1434.4 h -209.91 c -1.89,0 -3.69,0.8 -4.95,2.2 l -61.58,68.02 c -3.87,4.29 -0.83,11.15 4.94,11.15 h 199.62 c 1.7,0 3.34,-0.66 4.58,-1.83 l 71.88,-68.04 c 4.37,-4.14 1.44,-11.5 -4.58,-11.5" /><path
         id="path240"
         style="fill:#fef3fa;fill-opacity:1;fill-rule:nonzero;stroke:none"
         d="m 6776.53,2827.53 v 348.17 l -218.71,-348.17 z m 265.84,-67.59 c 0,-19.17 -6.31,-35.23 -18.85,-48.17 -12.58,-12.97 -30.82,-19.44 -54.68,-19.44 h -35.82 v -101.4 c 0,-55.22 -28.28,-82.82 -84.85,-82.82 -47.78,0 -71.64,29.84 -71.64,89.58 v 94.64 h -314.86 c -72.91,0 -109.36,19.71 -109.36,59.16 0,15.76 5.96,33.51 17.92,53.23 11.94,19.71 21.68,35.21 29.22,46.48 l 248.87,385.34 c 20.1,28.15 41.16,49.02 63.16,62.54 21.98,13.52 47.44,20.28 76.36,20.28 46.49,0 82.31,-11.83 107.47,-35.49 25.13,-23.66 37.71,-63.12 37.71,-118.31 v -338.03 h 35.82 c 23.86,0 42.1,-6.75 54.68,-20.27 12.54,-13.52 18.85,-29.32 18.85,-47.32" /><path
         id="path242"
         style="fill:#fef3fa;fill-opacity:1;fill-rule:nonzero;stroke:none"
         d="m 5034.9,2827.53 v 348.17 l -218.7,-348.17 z m 265.85,-67.59 c 0,-19.17 -6.31,-35.23 -18.86,-48.17 -12.58,-12.97 -30.81,-19.44 -54.67,-19.44 h -35.82 v -101.4 c 0,-55.22 -28.29,-82.82 -84.85,-82.82 -47.78,0 -71.65,29.84 -71.65,89.58 v 94.64 h -314.85 c -72.91,0 -109.36,19.71 -109.36,59.16 0,15.76 5.96,33.51 17.92,53.23 11.93,19.71 21.68,35.21 29.22,46.48 l 248.87,385.34 c 20.1,28.15 41.16,49.02 63.16,62.54 21.98,13.52 47.43,20.28 76.36,20.28 46.48,0 82.3,-11.83 107.47,-35.49 25.12,-23.66 37.71,-63.12 37.71,-118.31 v -338.03 h 35.82 c 23.86,0 42.09,-6.75 54.67,-20.27 12.55,-13.52 18.86,-29.32 18.86,-47.32" /><path
         id="path244"
         style="fill:#fef3fa;fill-opacity:1;fill-rule:nonzero;stroke:none"
         d="m 5771.69,2709.22 c -112.44,0 -203.59,91.16 -203.59,203.59 0,112.43 91.15,203.58 203.59,203.58 112.43,0 203.58,-91.15 203.58,-203.58 0,-112.43 -91.15,-203.59 -203.58,-203.59 z m 376.43,285.31 h -50.11 c -8.13,32.55 -20.98,63.21 -37.81,91.23 l 35.44,35.45 c 11.77,11.75 11.77,30.83 0,42.58 l -72.96,72.98 c -11.77,11.77 -30.83,11.77 -42.6,0 l -35.45,-35.45 c -28.01,16.84 -58.68,29.68 -91.22,37.81 v 50.11 c 0,16.63 -13.49,30.12 -30.12,30.12 h -103.2 c -16.64,0 -30.12,-13.49 -30.12,-30.12 v -50.11 c -32.55,-8.13 -63.21,-20.97 -91.23,-37.81 l -35.45,35.45 c -11.76,11.77 -30.83,11.77 -42.6,0 l -72.97,-72.98 c -11.76,-11.75 -11.76,-30.83 0,-42.58 l 35.44,-35.45 c -16.82,-28.02 -29.67,-58.68 -37.8,-91.23 h -50.11 c -16.64,0 -30.11,-13.49 -30.11,-30.12 v -103.2 c 0,-16.63 13.47,-30.12 30.11,-30.12 h 50.11 c 8.13,-32.55 20.98,-63.21 37.8,-91.23 l -35.44,-35.45 c -11.76,-11.76 -11.76,-30.83 0,-42.59 l 72.97,-72.98 c 11.77,-11.75 30.84,-11.75 42.6,0 l 35.45,35.45 c 28.02,-16.83 58.68,-29.68 91.23,-37.8 v -50.12 c 0,-16.63 13.48,-30.11 30.12,-30.11 h 103.2 c 16.63,0 30.12,13.48 30.12,30.11 v 50.12 c 32.54,8.12 63.21,20.98 91.22,37.8 l 35.45,-35.45 c 11.77,-11.75 30.83,-11.75 42.6,0 l 72.96,72.98 c 11.77,11.76 11.77,30.83 0,42.59 l -35.44,35.45 c 16.83,28.02 29.68,58.68 37.81,91.23 h 50.11 c 16.64,0 30.12,13.49 30.12,30.12 v 103.2 c 0,16.63 -13.48,30.12 -30.12,30.12" /><path
         id="path246"
         style="fill:#fef3fa;fill-opacity:1;fill-rule:nonzero;stroke:none"
         d="m 6279.65,3110.44 c -58.91,5.23 -102.42,57.23 -97.19,116.14 5.23,58.91 57.24,102.43 116.15,97.2 58.91,-5.24 102.42,-57.24 97.19,-116.15 -5.23,-58.91 -57.24,-102.43 -116.15,-97.19 z m 210.53,131.96 -26.26,2.33 c -2.75,17.43 -8.05,34.1 -15.57,49.56 l 20.22,16.92 c 6.72,5.62 7.6,15.61 1.99,22.32 l -34.84,41.63 c -5.61,6.72 -15.6,7.6 -22.31,1.99 l -20.23,-16.92 c -13.89,10.12 -29.36,18.28 -46.04,24.05 l 2.33,26.26 c 0.78,8.71 -5.66,16.4 -14.37,17.18 l -54.08,4.81 c -8.72,0.77 -16.41,-5.67 -17.18,-14.38 l -2.34,-26.26 c -17.43,-2.74 -34.09,-8.05 -49.56,-15.56 l -16.92,20.22 c -5.62,6.71 -15.61,7.6 -22.32,1.99 l -41.63,-34.84 c -6.72,-5.62 -7.59,-15.61 -1.98,-22.32 l 16.92,-20.22 c -10.12,-13.9 -18.29,-29.37 -24.06,-46.04 l -26.26,2.33 c -8.71,0.77 -16.4,-5.66 -17.17,-14.38 l -4.81,-54.08 c -0.77,-8.71 5.66,-16.4 14.38,-17.18 l 26.26,-2.33 c 2.74,-17.43 8.04,-34.09 15.55,-49.56 l -20.22,-16.93 c -6.71,-5.61 -7.6,-15.6 -1.99,-22.31 l 34.85,-41.63 c 5.61,-6.71 15.6,-7.6 22.31,-1.98 l 20.23,16.91 c 13.89,-10.12 29.36,-18.28 46.04,-24.05 l -2.33,-26.26 c -0.78,-8.71 5.66,-16.41 14.37,-17.18 l 54.08,-4.8 c 8.72,-0.79 16.41,5.66 17.18,14.37 l 2.34,26.26 c 17.43,2.74 34.09,8.05 49.56,15.56 l 16.92,-20.23 c 5.62,-6.71 15.61,-7.6 22.32,-1.98 l 41.63,34.84 c 6.71,5.62 7.59,15.61 1.98,22.32 l -16.92,20.22 c 10.12,13.9 18.29,29.37 24.06,46.05 l 26.25,-2.34 c 8.72,-0.78 16.41,5.67 17.19,14.38 l 4.8,54.07 c 0.77,8.72 -5.66,16.41 -14.37,17.19" /><path
         id="path248"
         style="fill:#fef3fa;fill-opacity:1;fill-rule:nonzero;stroke:none"
         d="m 5154.43,2249.29 c -6.58,0 -11.99,-0.2 -16.24,-0.61 v -48.51 h 12.54 c 12.46,0 22.06,1.75 28.77,5.24 6.72,3.49 10.08,10.1 10.08,19.83 0,4.66 -0.9,8.56 -2.68,11.72 -1.77,3.15 -4.24,5.61 -7.4,7.4 -3.15,1.78 -6.88,3.05 -11.2,3.8 -4.32,0.75 -8.94,1.13 -13.87,1.13 z m -1.85,22.4 c 20.69,0 36.55,-3.76 47.59,-11.3 11.02,-7.53 16.54,-19.32 16.54,-35.36 0,-8.35 -1.48,-15.51 -4.43,-21.47 -2.94,-5.96 -7.22,-10.83 -12.84,-14.59 -5.62,-3.78 -12.47,-6.55 -20.55,-8.33 -8.09,-1.78 -17.34,-2.67 -27.75,-2.67 h -12.95 v -50.15 h -25.9 v 140.38 c 6.03,1.37 12.71,2.29 20.04,2.77 7.33,0.48 14.09,0.72 20.25,0.72" /><path
         id="path250"
         style="fill:#fef3fa;fill-opacity:1;fill-rule:nonzero;stroke:none"
         d="m 5273.43,2145.29 c 7.67,0 13.49,0.41 17.47,1.23 v 27.55 c -1.37,0.41 -3.36,0.82 -5.96,1.23 -2.61,0.41 -5.48,0.61 -8.63,0.61 -2.75,0 -5.52,-0.2 -8.32,-0.61 -2.81,-0.41 -5.35,-1.16 -7.61,-2.27 -2.27,-1.09 -4.08,-2.63 -5.45,-4.62 -1.37,-1.99 -2.05,-4.49 -2.05,-7.5 0,-5.89 1.85,-9.97 5.55,-12.23 3.7,-2.26 8.7,-3.39 15,-3.39 z m -2.05,92.69 c 8.22,0 15.13,-1.02 20.76,-3.07 5.61,-2.06 10.1,-4.94 13.46,-8.63 3.35,-3.71 5.76,-8.2 7.19,-13.47 1.44,-5.28 2.16,-11.07 2.16,-17.37 v -65.15 c -3.84,-0.83 -9.63,-1.83 -17.37,-2.99 -7.75,-1.16 -16.48,-1.75 -26.2,-1.75 -6.45,0 -12.34,0.63 -17.68,1.86 -5.34,1.23 -9.9,3.21 -13.67,5.95 -3.77,2.75 -6.72,6.31 -8.84,10.7 -2.13,4.38 -3.18,9.79 -3.18,16.23 0,6.17 1.2,11.38 3.59,15.62 2.4,4.25 5.66,7.71 9.77,10.38 4.11,2.68 8.86,4.59 14.28,5.76 5.41,1.16 11.07,1.74 16.96,1.74 2.74,0 5.61,-0.17 8.63,-0.5 3.02,-0.35 6.23,-0.93 9.66,-1.75 v 4.11 c 0,2.87 -0.34,5.62 -1.03,8.21 -0.68,2.61 -1.88,4.91 -3.59,6.9 -1.72,1.98 -3.98,3.52 -6.79,4.62 -2.81,1.09 -6.34,1.64 -10.58,1.64 -5.76,0 -11.03,-0.41 -15.82,-1.23 -4.81,-0.82 -8.72,-1.78 -11.72,-2.87 l -3.09,20.13 c 3.15,1.1 7.74,2.19 13.77,3.29 6.04,1.1 12.47,1.64 19.33,1.64" /><path
         id="path252"
         style="fill:#fef3fa;fill-opacity:1;fill-rule:nonzero;stroke:none"
         d="m 5364.89,2184.34 c 0,-10.56 2.3,-18.26 6.89,-23.12 4.59,-4.87 10.51,-7.3 17.78,-7.3 3.97,0 7.71,0.55 11.2,1.64 3.5,1.11 6.34,2.4 8.53,3.91 v 55.7 c -1.78,0.41 -3.98,0.79 -6.58,1.13 -2.6,0.35 -5.89,0.51 -9.86,0.51 -9.04,0 -15.97,-2.98 -20.76,-8.93 -4.8,-5.96 -7.2,-13.81 -7.2,-23.54 z m 69.27,-45.62 c 0,-17.13 -4.35,-29.67 -13.05,-37.62 -8.71,-7.95 -22.03,-11.92 -39.98,-11.92 -6.58,0 -12.99,0.54 -19.22,1.65 -6.24,1.09 -11.88,2.53 -16.95,4.3 l 4.52,21.17 c 4.24,-1.77 9.07,-3.21 14.49,-4.31 5.41,-1.1 11.27,-1.64 17.57,-1.64 10,0 17.13,2.05 21.38,6.16 4.25,4.11 6.37,10.21 6.37,18.3 v 4.11 c -2.46,-1.24 -5.73,-2.47 -9.76,-3.7 -4.04,-1.24 -8.67,-1.86 -13.88,-1.86 -6.85,0 -13.12,1.1 -18.8,3.3 -5.69,2.18 -10.55,5.41 -14.59,9.65 -4.05,4.25 -7.2,9.56 -9.46,15.93 -2.26,6.38 -3.4,13.74 -3.4,22.1 0,7.81 1.2,15 3.61,21.58 2.39,6.58 5.89,12.2 10.48,16.86 4.59,4.66 10.17,8.29 16.74,10.89 6.59,2.61 14.06,3.9 22.42,3.9 8.07,0 15.75,-0.61 23.01,-1.84 7.26,-1.24 13.43,-2.54 18.5,-3.91 v -93.1" /><path
         id="path254"
         style="fill:#fef3fa;fill-opacity:1;fill-rule:nonzero;stroke:none"
         d="m 5532,2192.15 c 0,3.42 -0.49,6.68 -1.44,9.77 -0.96,3.08 -2.37,5.75 -4.21,8.01 -1.86,2.26 -4.11,4.04 -6.79,5.35 -2.67,1.3 -5.86,1.95 -9.55,1.95 -3.84,0 -7.2,-0.72 -10.08,-2.16 -2.87,-1.44 -5.31,-3.33 -7.29,-5.65 -2,-2.33 -3.53,-5.01 -4.63,-8.02 -1.1,-3.02 -1.85,-6.1 -2.26,-9.25 z m -72.15,-11.1 c 0,9.45 1.41,17.74 4.21,24.87 2.81,7.12 6.54,13.05 11.21,17.79 4.65,4.72 10,8.28 16.03,10.68 6.02,2.39 12.2,3.59 18.49,3.59 14.81,0 26.35,-4.59 34.64,-13.77 8.29,-9.18 12.43,-22.88 12.43,-41.1 0,-1.38 -0.02,-2.92 -0.09,-4.63 -0.07,-1.71 -0.18,-3.25 -0.32,-4.62 h -70.9 c 0.68,-8.63 3.73,-15.31 9.14,-20.05 5.42,-4.72 13.26,-7.09 23.53,-7.09 6.04,0 11.55,0.55 16.55,1.65 5,1.1 8.94,2.26 11.82,3.5 l 3.29,-20.35 c -1.37,-0.69 -3.26,-1.41 -5.65,-2.16 -2.4,-0.75 -5.14,-1.43 -8.22,-2.06 -3.09,-0.61 -6.41,-1.12 -9.98,-1.53 -3.56,-0.42 -7.18,-0.63 -10.88,-0.63 -9.46,0 -17.68,1.41 -24.67,4.22 -6.99,2.8 -12.75,6.71 -17.27,11.72 -4.52,5 -7.88,10.89 -10.07,17.68 -2.19,6.77 -3.29,14.2 -3.29,22.29" /><path
         id="path256"
         style="fill:#fef3fa;fill-opacity:1;fill-rule:nonzero;stroke:none"
         d="m 5631.06,2231.82 c 4.8,1.37 11.03,2.67 18.71,3.91 7.67,1.23 16.17,1.84 25.48,1.84 8.77,0 16.11,-1.2 22,-3.59 5.88,-2.4 10.58,-5.75 14.08,-10.07 3.49,-4.31 5.95,-9.53 7.4,-15.62 1.44,-6.11 2.16,-12.79 2.16,-20.04 v -60.43 h -24.87 v 56.52 c 0,5.75 -0.39,10.66 -1.14,14.7 -0.75,4.04 -1.98,7.32 -3.7,9.86 -1.71,2.54 -4.04,4.39 -6.98,5.55 -2.95,1.16 -6.55,1.75 -10.79,1.75 -3.16,0 -6.45,-0.21 -9.88,-0.62 -3.41,-0.41 -5.95,-0.75 -7.59,-1.02 v -86.74 h -24.88 v 104" /><path
         id="path258"
         style="fill:#fef3fa;fill-opacity:1;fill-rule:nonzero;stroke:none"
         d="m 5823.04,2181.67 c 0,10.69 -2.3,19.15 -6.89,25.39 -4.59,6.23 -10.99,9.34 -19.22,9.34 -8.22,0 -14.63,-3.11 -19.22,-9.34 -4.59,-6.24 -6.88,-14.7 -6.88,-25.39 0,-10.82 2.29,-19.39 6.88,-25.7 4.59,-6.3 11,-9.45 19.22,-9.45 8.23,0 14.63,3.15 19.22,9.45 4.59,6.31 6.89,14.88 6.89,25.7 z m 25.48,0 c 0,-8.5 -1.24,-16.23 -3.7,-23.23 -2.47,-6.99 -5.95,-12.95 -10.48,-17.88 -4.53,-4.93 -9.97,-8.77 -16.34,-11.51 -6.37,-2.74 -13.39,-4.11 -21.07,-4.11 -7.67,0 -14.66,1.37 -20.96,4.11 -6.3,2.74 -11.72,6.58 -16.24,11.51 -4.53,4.93 -8.05,10.89 -10.59,17.88 -2.53,7 -3.8,14.73 -3.8,23.23 0,8.49 1.27,16.2 3.8,23.12 2.54,6.92 6.1,12.85 10.69,17.78 4.59,4.94 10.04,8.73 16.34,11.41 6.3,2.67 13.22,4 20.76,4 7.53,0 14.5,-1.33 20.86,-4 6.38,-2.68 11.82,-6.47 16.34,-11.41 4.52,-4.93 8.06,-10.86 10.59,-17.78 2.54,-6.92 3.8,-14.63 3.8,-23.12" /><path
         id="path260"
         style="fill:#fef3fa;fill-opacity:1;fill-rule:nonzero;stroke:none"
         d="m 5872.98,2263.68 24.87,4.11 v -32.47 h 38.23 v -20.76 h -38.23 v -43.78 c 0,-8.64 1.37,-14.81 4.11,-18.5 2.74,-3.7 7.4,-5.56 13.98,-5.56 4.52,0 8.53,0.48 12.02,1.45 3.49,0.96 6.27,1.85 8.33,2.67 l 4.11,-19.73 c -2.88,-1.24 -6.65,-2.5 -11.31,-3.81 -4.66,-1.3 -10.14,-1.95 -16.44,-1.95 -7.68,0 -14.08,1.03 -19.22,3.08 -5.14,2.06 -9.21,5.04 -12.23,8.95 -3.02,3.9 -5.14,8.63 -6.37,14.18 -1.24,5.55 -1.85,11.88 -1.85,19.01 v 93.11" /><path
         id="path262"
         style="fill:#fef3fa;fill-opacity:1;fill-rule:nonzero;stroke:none"
         d="m 6051.8,2287.32 c 5.75,0 10.82,-0.52 15.2,-1.54 4.39,-1.03 7.68,-1.96 9.86,-2.78 l -4.72,-20.55 c -2.33,1.09 -5.03,1.98 -8.12,2.67 -3.08,0.69 -6.4,1.03 -9.97,1.03 -3.97,0 -7.33,-0.59 -10.07,-1.75 -2.74,-1.17 -4.93,-2.77 -6.58,-4.83 -1.64,-2.05 -2.8,-4.55 -3.48,-7.5 -0.7,-2.95 -1.04,-6.14 -1.04,-9.56 v -7.19 h 39.05 v -20.76 h -39.05 v -86.74 h -24.86 v 115.1 c 0,13.83 3.62,24.69 10.89,32.57 7.26,7.88 18.22,11.83 32.89,11.83" /><path
         id="path264"
         style="fill:#fef3fa;fill-opacity:1;fill-rule:nonzero;stroke:none"
         d="m 6159.91,2181.67 c 0,10.69 -2.29,19.15 -6.88,25.39 -4.59,6.23 -11,9.34 -19.22,9.34 -8.22,0 -14.63,-3.11 -19.22,-9.34 -4.59,-6.24 -6.89,-14.7 -6.89,-25.39 0,-10.82 2.3,-19.39 6.89,-25.7 4.59,-6.3 11,-9.45 19.22,-9.45 8.22,0 14.63,3.15 19.22,9.45 4.59,6.31 6.88,14.88 6.88,25.7 z m 25.49,0 c 0,-8.5 -1.23,-16.23 -3.7,-23.23 -2.46,-6.99 -5.96,-12.95 -10.48,-17.88 -4.52,-4.93 -9.97,-8.77 -16.35,-11.51 -6.36,-2.74 -13.39,-4.11 -21.06,-4.11 -7.68,0 -14.66,1.37 -20.97,4.11 -6.3,2.74 -11.71,6.58 -16.23,11.51 -4.52,4.93 -8.06,10.89 -10.59,17.88 -2.53,7 -3.8,14.73 -3.8,23.23 0,8.49 1.27,16.2 3.8,23.12 2.53,6.92 6.1,12.85 10.69,17.78 4.59,4.94 10.04,8.73 16.34,11.41 6.3,2.67 13.22,4 20.76,4 7.54,0 14.49,-1.33 20.86,-4 6.37,-2.68 11.82,-6.47 16.35,-11.41 4.52,-4.93 8.04,-10.86 10.58,-17.78 2.53,-6.92 3.8,-14.63 3.8,-23.12" /><path
         id="path266"
         style="fill:#fef3fa;fill-opacity:1;fill-rule:nonzero;stroke:none"
         d="m 6299.27,2131.11 c -4.8,-1.24 -11.04,-2.5 -18.7,-3.81 -7.68,-1.3 -16.11,-1.95 -25.29,-1.95 -8.63,0 -15.86,1.24 -21.69,3.7 -5.82,2.47 -10.48,5.89 -13.97,10.28 -3.5,4.39 -6,9.62 -7.5,15.72 -1.52,6.1 -2.27,12.78 -2.27,20.04 v 60.23 h 24.88 V 2179 c 0,-11.51 1.68,-19.74 5.04,-24.67 3.34,-4.93 9.2,-7.4 17.56,-7.4 3.02,0 6.2,0.14 9.56,0.41 3.36,0.27 5.86,0.62 7.5,1.03 v 86.95 h 24.88 v -104.21" /><path
         id="path268"
         style="fill:#fef3fa;fill-opacity:1;fill-rule:nonzero;stroke:none"
         d="m 6330.92,2231.82 c 4.79,1.37 11.02,2.67 18.7,3.91 7.67,1.23 16.17,1.84 25.49,1.84 8.77,0 16.1,-1.2 21.99,-3.59 5.89,-2.4 10.58,-5.75 14.08,-10.07 3.5,-4.31 5.96,-9.53 7.4,-15.62 1.44,-6.11 2.16,-12.79 2.16,-20.04 v -60.43 h -24.87 v 56.52 c 0,5.75 -0.38,10.66 -1.13,14.7 -0.76,4.04 -1.99,7.32 -3.71,9.86 -1.7,2.54 -4.04,4.39 -6.98,5.55 -2.95,1.16 -6.54,1.75 -10.79,1.75 -3.15,0 -6.44,-0.21 -9.87,-0.62 -3.42,-0.41 -5.96,-0.75 -7.6,-1.02 v -86.74 h -24.87 v 104" /><path
         id="path270"
         style="fill:#fef3fa;fill-opacity:1;fill-rule:nonzero;stroke:none"
         d="m 6470.68,2181.87 c 0,-10.96 2.6,-19.56 7.82,-25.79 5.2,-6.24 12.39,-9.36 21.58,-9.36 3.96,0 7.36,0.18 10.17,0.52 2.81,0.34 5.1,0.72 6.89,1.13 v 61.66 c -2.2,1.51 -5.11,2.91 -8.74,4.21 -3.63,1.31 -7.5,1.96 -11.61,1.96 -9.05,0 -15.66,-3.08 -19.84,-9.25 -4.18,-6.16 -6.27,-14.52 -6.27,-25.08 z m 71.32,-50.76 c -4.93,-1.51 -11.13,-2.88 -18.59,-4.11 -7.47,-1.23 -15.31,-1.86 -23.54,-1.86 -8.5,0 -16.1,1.31 -22.82,3.91 -6.71,2.61 -12.43,6.34 -17.16,11.2 -4.72,4.86 -8.36,10.76 -10.9,17.68 -2.53,6.92 -3.8,14.69 -3.8,23.33 0,8.49 1.07,16.2 3.19,23.12 2.13,6.91 5.24,12.85 9.35,17.78 4.12,4.94 9.12,8.73 15,11.41 5.9,2.67 12.68,4 20.36,4 5.2,0 9.79,-0.61 13.76,-1.84 3.98,-1.24 7.41,-2.61 10.29,-4.11 v 51.59 l 24.86,4.11 v -156.21" /><path
         id="path272"
         style="fill:#382d88;fill-opacity:1;fill-rule:nonzero;stroke:none"
         d="m 3328.4,5504.64 522.19,-88.4 -41.66,-175.38 z" /><path
         id="path274"
         style="fill:#6b50ad;fill-opacity:1;fill-rule:nonzero;stroke:none"
         d="m 3328.4,5504.64 437.53,-132.78 43,-131 z" /><path
         id="path276"
         style="fill:#9d8acd;fill-opacity:1;fill-rule:nonzero;stroke:none"
         d="m 3328.4,5504.64 650.15,10.78 -127.96,-99.18 z" /><path
         id="path278"
         style="fill:#9d8acd;fill-opacity:1;fill-rule:nonzero;stroke:none"
         d="m 3328.4,5504.64 437.53,-132.78 -162.37,-108.25 z" /><path
         id="path280"
         style="fill:#382d88;fill-opacity:1;fill-rule:nonzero;stroke:none"
         d="m 8695.37,3698 -412.25,108.79 -34.33,-151.91 z" /><path
         id="path282"
         style="fill:#6b50ad;fill-opacity:1;fill-rule:nonzero;stroke:none"
         d="m 8695.37,3698 -367.05,45.06 -79.53,-88.18 z" /><path
         id="path284"
         style="fill:#9d8acd;fill-opacity:1;fill-rule:nonzero;stroke:none"
         d="m 8695.37,3698 -468.75,230.32 56.5,-121.53 z" /><path
         id="path286"
         style="fill:#9d8acd;fill-opacity:1;fill-rule:nonzero;stroke:none"
         d="m 8695.37,3698 -367.05,45.06 78.17,-140.4 z" /><path
         id="path288"
         style="fill:#6b50ad;fill-opacity:1;fill-rule:nonzero;stroke:none"
         d="m 3928.15,5201.31 c -2.62,0 -5.23,1.1 -7.08,3.24 -5.18,6.04 -10.25,12.25 -15.05,18.49 -3.15,4.08 -2.39,9.93 1.7,13.08 4.07,3.17 9.92,2.41 13.09,-1.69 4.66,-6.05 9.47,-11.95 14.41,-17.7 3.36,-3.91 2.92,-9.81 -0.99,-13.16 -1.76,-1.52 -3.92,-2.26 -6.08,-2.26" /><path
         id="path290"
         style="fill:#6b50ad;fill-opacity:1;fill-rule:nonzero;stroke:none"
         d="m 4691.69,5550.21 c -4.6,0 -8.61,3.4 -9.24,8.1 -0.68,5.1 2.91,9.8 8.02,10.48 15.73,2.1 31.66,3.48 47.35,4.09 5.08,0.23 9.49,-3.81 9.69,-8.96 0.2,-5.14 -3.8,-9.49 -8.96,-9.69 -15.1,-0.59 -30.45,-1.91 -45.61,-3.94 -0.42,-0.06 -0.84,-0.08 -1.25,-0.08 z m 139.55,-1.44 c -0.49,0 -0.99,0.03 -1.48,0.12 -14.91,2.38 -30.21,4.03 -45.46,4.93 -5.14,0.3 -9.08,4.71 -8.77,9.85 0.3,5.15 4.67,9.01 9.85,8.77 15.88,-0.92 31.81,-2.64 47.32,-5.12 5.09,-0.82 8.56,-5.61 7.75,-10.7 -0.73,-4.58 -4.7,-7.85 -9.21,-7.85 z m -230.44,-19.3 c -3.94,0 -7.59,2.5 -8.87,6.44 -1.59,4.9 1.09,10.17 5.99,11.76 15.08,4.91 30.49,9.16 45.79,12.65 5.02,1.18 10.03,-1.98 11.17,-7.01 1.15,-5.02 -1.99,-10.03 -7.02,-11.17 -14.76,-3.38 -29.62,-7.48 -44.17,-12.22 -0.96,-0.31 -1.93,-0.45 -2.89,-0.45 z m 319.64,-7.25 c -1.33,0 -2.67,0.29 -3.95,0.88 -13.18,6.16 -27.43,11.51 -42.36,15.91 -4.94,1.45 -7.76,6.64 -6.32,11.58 1.47,4.94 6.68,7.78 11.59,6.32 15.82,-4.66 30.96,-10.35 44.99,-16.9 4.67,-2.19 6.68,-7.74 4.51,-12.4 -1.59,-3.4 -4.96,-5.39 -8.46,-5.39 z m -405.38,-29.37 c -3.33,0 -6.55,1.79 -8.23,4.92 -2.44,4.55 -0.73,10.2 3.81,12.63 13.88,7.45 28.29,14.37 42.81,20.58 4.75,2.02 10.23,-0.18 12.25,-4.93 2.02,-4.73 -0.17,-10.21 -4.91,-12.24 -14.02,-5.99 -27.93,-12.67 -41.33,-19.85 -1.4,-0.76 -2.92,-1.11 -4.4,-1.11 z m 479.68,-25.89 c -2.71,0 -5.39,1.17 -7.23,3.43 -8.88,10.86 -19.75,20.99 -32.3,30.1 -4.16,3.03 -5.08,8.87 -2.06,13.04 3.03,4.16 8.86,5.1 13.04,2.07 13.84,-10.06 25.87,-21.3 35.77,-33.4 3.26,-4 2.67,-9.87 -1.33,-13.13 -1.72,-1.42 -3.81,-2.11 -5.89,-2.11 z m -557.5,-25.45 c -2.74,0 -5.45,1.19 -7.29,3.5 -3.22,4.03 -2.58,9.89 1.45,13.11 12.28,9.84 25.22,19.24 38.43,27.95 4.31,2.83 10.1,1.65 12.93,-2.66 2.84,-4.3 1.65,-10.09 -2.65,-12.92 -12.75,-8.4 -25.21,-17.46 -37.04,-26.94 -1.73,-1.37 -3.78,-2.04 -5.83,-2.04 z m 589.8,-60.27 c -4.97,0 -9.1,3.92 -9.32,8.94 -0.46,11.36 -2.12,22.18 -4.91,32.14 -1.01,3.59 -2.17,7.11 -3.46,10.55 -1.81,4.82 0.62,10.21 5.44,12.02 4.83,1.82 10.22,-0.62 12.03,-5.44 1.48,-3.95 2.81,-7.97 3.96,-12.11 3.17,-11.34 5.06,-23.59 5.6,-36.38 0.21,-5.15 -3.78,-9.5 -8.94,-9.71 -0.13,-0.01 -0.26,-0.01 -0.4,-0.01 z m -656.73,-4.63 c -2.13,0 -4.27,0.73 -6.02,2.22 -3.94,3.33 -4.43,9.22 -1.09,13.15 10.13,11.95 21.07,23.63 32.52,34.72 3.7,3.59 9.61,3.5 13.2,-0.2 3.58,-3.71 3.48,-9.61 -0.22,-13.2 -11.01,-10.67 -21.53,-21.9 -31.26,-33.39 -1.84,-2.18 -4.48,-3.3 -7.13,-3.3 z m -52.8,-76.79 c -1.51,0 -3.04,0.37 -4.47,1.15 -4.52,2.47 -6.18,8.14 -3.7,12.66 7.48,13.66 15.66,27.01 24.34,39.68 l 0.62,0.91 c 2.94,4.23 8.75,5.3 12.98,2.35 4.24,-2.94 5.29,-8.75 2.36,-12.99 l -0.51,-0.74 c -8.38,-12.24 -16.24,-25.05 -23.42,-38.17 -1.7,-3.1 -4.9,-4.85 -8.2,-4.85 z m 694.84,-10.3 c -0.96,0 -1.94,0.15 -2.91,0.47 -4.89,1.6 -7.57,6.88 -5.95,11.77 3.98,12.13 7.23,24.56 9.68,36.94 0.46,2.32 0.89,4.64 1.29,6.96 0.86,5.08 5.67,8.42 10.76,7.64 5.08,-0.86 8.5,-5.68 7.64,-10.76 -0.43,-2.5 -0.89,-4.99 -1.38,-7.45 -2.59,-13.13 -6.05,-26.3 -10.26,-39.14 -1.29,-3.94 -4.94,-6.43 -8.87,-6.43 z m -731.43,-75.43 c -0.94,0 -1.89,0.14 -2.84,0.44 -4.91,1.57 -7.62,6.82 -6.05,11.73 4.82,15.14 10.39,30.14 16.54,44.58 2.03,4.74 7.5,6.95 12.24,4.92 4.75,-2.02 6.95,-7.5 4.93,-12.25 -5.93,-13.89 -11.29,-28.34 -15.94,-42.92 -1.26,-3.96 -4.93,-6.5 -8.88,-6.5 z m 690.74,-8.28 c -1.76,0 -3.54,0.49 -5.12,1.53 -4.3,2.84 -5.51,8.62 -2.67,12.93 8.4,12.79 15.98,26.07 22.54,39.48 2.25,4.63 7.81,6.59 12.48,4.29 4.63,-2.25 6.55,-7.84 4.28,-12.47 -6.89,-14.12 -14.87,-28.1 -23.7,-41.55 -1.79,-2.73 -4.77,-4.21 -7.81,-4.21 z m -975.95,-68.72 c -2.01,0 -4.03,0.66 -5.74,1.98 -12.57,9.82 -24.7,20.25 -36.05,31.01 -3.74,3.55 -3.9,9.45 -0.35,13.19 3.53,3.74 9.45,3.91 13.19,0.35 10.92,-10.34 22.59,-20.39 34.7,-29.83 4.06,-3.18 4.78,-9.04 1.62,-13.1 -1.85,-2.36 -4.59,-3.6 -7.37,-3.6 z m 916.11,-2.67 c -2.47,0 -4.93,0.96 -6.76,2.88 -3.56,3.74 -3.42,9.64 0.31,13.2 11.09,10.59 21.61,21.78 31.26,33.26 3.31,3.94 9.2,4.44 13.14,1.13 3.95,-3.31 4.47,-9.2 1.15,-13.14 -10.09,-12 -21.08,-23.69 -32.67,-34.75 -1.81,-1.73 -4.12,-2.58 -6.43,-2.58 z m -650.92,-11.38 c -0.39,0 -0.79,0.03 -1.19,0.08 -5.11,0.65 -8.73,5.32 -8.08,10.43 1.99,15.7 4.71,31.44 8.09,46.82 1.1,5.02 6.11,8.17 11.11,7.1 5.03,-1.09 8.22,-6.07 7.11,-11.11 -3.25,-14.82 -5.88,-30.01 -7.79,-45.16 -0.6,-4.71 -4.62,-8.16 -9.25,-8.16 z m -186.96,-36.61 c -1.49,0 -3,0.36 -4.4,1.11 -14.08,7.55 -27.83,15.64 -40.85,24.05 -4.33,2.8 -5.58,8.57 -2.78,12.89 2.8,4.34 8.57,5.57 12.9,2.79 12.61,-8.14 25.91,-15.97 39.55,-23.29 4.54,-2.43 6.24,-8.08 3.81,-12.63 -1.68,-3.14 -4.9,-4.92 -8.23,-4.92 z m 764.21,-9.13 c -3.1,0 -6.14,1.56 -7.91,4.39 -2.73,4.36 -1.41,10.13 2.95,12.86 12.95,8.1 25.57,16.91 37.52,26.16 4.06,3.15 9.93,2.43 13.1,-1.67 3.15,-4.07 2.4,-9.93 -1.67,-13.09 -12.43,-9.63 -25.58,-18.79 -39.04,-27.22 -1.54,-0.96 -3.26,-1.43 -4.95,-1.43 z m -679.05,-28.88 c -1.07,0 -2.16,0.18 -3.22,0.58 -14.97,5.5 -29.71,11.46 -43.82,17.73 -4.71,2.11 -6.82,7.62 -4.73,12.33 2.1,4.72 7.62,6.83 12.32,4.74 13.73,-6.11 28.08,-11.92 42.67,-17.29 4.83,-1.78 7.32,-7.14 5.54,-11.98 -1.39,-3.78 -4.96,-6.11 -8.76,-6.11 z m 595.59,-12.63 c -3.74,0 -7.27,2.27 -8.7,5.97 -1.86,4.8 0.52,10.2 5.34,12.06 8.49,3.3 16.88,6.78 24.92,10.38 5.71,2.55 11.4,5.21 17.02,8.01 4.63,2.31 10.22,0.42 12.51,-4.2 2.3,-4.62 0.41,-10.22 -4.21,-12.51 -5.85,-2.91 -11.76,-5.68 -17.7,-8.34 -8.32,-3.73 -17.02,-7.34 -25.81,-10.74 -1.11,-0.43 -2.25,-0.63 -3.37,-0.63 z m -506.25,-14.3 c -0.73,0 -1.47,0.08 -2.21,0.26 -15.49,3.76 -30.81,7.91 -45.54,12.32 -4.93,1.49 -7.74,6.69 -6.25,11.63 1.48,4.94 6.67,7.73 11.62,6.25 13.59,-4.08 27.7,-7.92 41.99,-11.43 -0.43,8.61 -0.64,17.36 -0.64,26.02 0,6.57 0.12,13.12 0.36,19.67 0.19,5.15 4.54,9.35 9.67,8.98 5.15,-0.19 9.17,-4.53 8.99,-9.67 -0.24,-6.31 -0.36,-12.65 -0.36,-18.98 0,-8.95 0.24,-17.99 0.7,-26.85 0.28,-5.15 -3.68,-9.54 -8.83,-9.81 -0.07,0 -0.15,0 -0.23,-0.02 -0.04,-0.41 -0.11,-0.82 -0.22,-1.23 -1.03,-4.28 -4.84,-7.14 -9.05,-7.14 z m 416.83,-12.18 c -4.3,0 -8.17,2.99 -9.11,7.37 -1.08,5.04 2.12,10 7.16,11.08 15.13,3.25 30.12,7.06 44.54,11.32 4.95,1.48 10.14,-1.36 11.59,-6.31 1.47,-4.95 -1.35,-10.13 -6.3,-11.59 -14.88,-4.39 -30.32,-8.32 -45.91,-11.66 -0.66,-0.15 -1.32,-0.21 -1.97,-0.21 z m -325.11,-5.28 c -0.44,0 -0.89,0.03 -1.33,0.09 -15.78,2.26 -31.43,4.85 -46.5,7.71 -5.06,0.96 -8.39,5.84 -7.43,10.91 0.96,5.05 5.83,8.35 10.91,7.43 14.79,-2.81 30.16,-5.37 45.64,-7.57 5.11,-0.73 8.66,-5.46 7.92,-10.56 -0.65,-4.65 -4.65,-8.01 -9.21,-8.01 z m 232.79,-8.24 c -4.81,0 -8.88,3.68 -9.29,8.55 -0.43,5.14 3.39,9.65 8.52,10.08 15.59,1.31 31.01,3.06 45.82,5.21 5.05,0.84 9.83,-2.79 10.57,-7.89 0.74,-5.1 -2.79,-9.83 -7.9,-10.57 -15.17,-2.21 -30.96,-4 -46.93,-5.34 -0.26,-0.03 -0.53,-0.04 -0.79,-0.04 z m -139.89,-1.04 c -0.2,0 -0.38,0.01 -0.58,0.02 -10.58,0.64 -21.12,1.41 -31.64,2.32 -5.08,0.43 -10.17,0.9 -15.25,1.4 -5.14,0.51 -8.88,5.08 -8.37,10.21 0.5,5.12 5.06,8.86 10.2,8.36 5.01,-0.5 10.01,-0.95 15,-1.38 10.37,-0.89 20.77,-1.64 31.19,-2.28 5.14,-0.31 9.07,-4.74 8.74,-9.88 -0.29,-4.95 -4.4,-8.77 -9.29,-8.77 z m 64.87,-2 c -6.14,0 -12.29,0.06 -18.42,0.17 -5.16,0.09 -9.26,4.35 -9.16,9.5 0.09,5.17 4.33,9.44 9.5,9.16 15.41,-0.26 30.82,-0.2 46.23,0.26 4.99,-0.1 9.45,-3.91 9.6,-9.05 0.16,-5.16 -3.89,-9.46 -9.05,-9.61 -9.55,-0.29 -19.13,-0.43 -28.7,-0.43 z m -227.27,-55.17 c -4.22,0 -8.05,2.88 -9.06,7.17 -3.64,15.28 -6.62,30.99 -8.87,46.69 -0.73,5.1 2.82,9.83 7.92,10.56 5.08,0.71 9.83,-2.82 10.56,-7.92 2.16,-15.14 5.04,-30.28 8.54,-45.01 1.19,-5.01 -1.9,-10.04 -6.92,-11.24 -0.72,-0.17 -1.45,-0.25 -2.17,-0.25 z m 30.05,-88.25 c -3.56,0 -6.95,2.04 -8.51,5.49 -6.48,14.32 -12.35,29.22 -17.45,44.26 -1.66,4.87 0.95,10.17 5.84,11.83 4.86,1.66 10.17,-0.95 11.83,-5.84 4.91,-14.46 10.56,-28.78 16.78,-42.56 2.13,-4.71 0.04,-10.23 -4.66,-12.35 -1.24,-0.57 -2.55,-0.83 -3.83,-0.83 z m 46.71,-80.64 c -2.89,0 -5.74,1.34 -7.57,3.85 -6.77,9.37 -13.28,19.08 -19.32,28.89 -2.25,3.66 -4.45,7.35 -6.6,11.06 -2.58,4.45 -1.06,10.16 3.4,12.74 4.46,2.6 10.18,1.07 12.75,-3.4 2.06,-3.56 4.18,-7.09 6.35,-10.62 5.79,-9.4 12.04,-18.73 18.54,-27.71 3.03,-4.18 2.09,-10.02 -2.08,-13.04 -1.66,-1.2 -3.57,-1.77 -5.47,-1.77 z m 61.8,-69.77 c -2.29,0 -4.56,0.83 -6.37,2.5 -11.62,10.82 -22.79,22.27 -33.21,34.03 -3.43,3.85 -3.07,9.75 0.79,13.16 3.85,3.43 9.75,3.08 13.16,-0.79 10.03,-11.3 20.79,-22.32 31.99,-32.75 3.77,-3.5 3.98,-9.41 0.46,-13.18 -1.84,-1.97 -4.33,-2.97 -6.82,-2.97 z m 73.78,-56.97 c -1.72,0 -3.45,0.47 -5,1.45 -13.39,8.51 -26.48,17.69 -38.91,27.28 -4.07,3.16 -4.82,9.02 -1.68,13.1 3.16,4.08 9.02,4.81 13.1,1.68 11.98,-9.25 24.6,-18.1 37.5,-26.31 4.35,-2.77 5.63,-8.53 2.87,-12.89 -1.78,-2.79 -4.81,-4.31 -7.88,-4.31 z m 82.82,-42.85 c -1.18,0 -2.38,0.22 -3.54,0.7 -14.6,5.97 -29.11,12.68 -43.11,19.92 -4.58,2.37 -6.38,7.99 -4,12.57 2.37,4.58 7.97,6.35 12.57,4.01 13.52,-6.99 27.52,-13.46 41.61,-19.22 4.78,-1.97 7.06,-7.42 5.1,-12.18 -1.47,-3.61 -4.96,-5.8 -8.63,-5.8 z m 89.12,-27.41 c -0.63,0 -1.29,0.06 -1.93,0.2 -15.39,3.25 -30.87,7.25 -46,11.91 -4.93,1.52 -7.69,6.75 -6.17,11.67 1.51,4.94 6.72,7.7 11.66,6.17 14.59,-4.5 29.51,-8.36 44.35,-11.49 5.04,-1.06 8.28,-6.01 7.21,-11.05 -0.93,-4.39 -4.8,-7.41 -9.12,-7.41 z m 92.61,-10.61 c -0.06,0 -0.11,0 -0.17,0 -15.68,0.29 -31.65,1.35 -47.45,3.17 -5.13,0.59 -8.8,5.22 -8.21,10.34 0.59,5.12 5.26,8.83 10.34,8.2 15.21,-1.75 30.58,-2.77 45.65,-3.04 5.16,-0.09 9.26,-4.35 9.16,-9.51 -0.08,-5.09 -4.24,-9.16 -9.32,-9.16" /><path
         id="path292"
         style="fill:#6b50ad;fill-opacity:1;fill-rule:nonzero;stroke:none"
         d="m 4795,4562.61 c -4.8,0 -8.88,3.67 -9.29,8.55 -0.43,5.14 3.39,9.64 8.53,10.07 7.6,0.64 15.18,1.46 22.75,2.49 5.06,0.66 9.81,-2.89 10.5,-7.99 0.69,-5.11 -2.89,-9.82 -8,-10.51 -7.88,-1.06 -15.79,-1.92 -23.7,-2.58 -0.26,-0.03 -0.53,-0.03 -0.79,-0.03" /><path
         id="path294"
         style="fill:#3b393d;fill-opacity:1;fill-rule:nonzero;stroke:none"
         d="m 182.918,4510.73 c 0,-118.6 91.465,-210.06 199.004,-210.06 108.551,0 194.98,91.46 194.98,210.06 0,118.59 -86.429,208.05 -194.98,208.05 -108.543,0 -199.004,-89.46 -199.004,-208.05 z m 577.918,1 c 0,-205.03 -162.824,-360.82 -380.918,-360.82 C 162.82,4150.91 0,4305.69 0,4511.73 c 0,205.03 162.82,356.8 379.918,356.8 218.094,0 380.918,-152.77 380.918,-356.8" /><path
         id="path296"
         style="fill:#3b393d;fill-opacity:1;fill-rule:nonzero;stroke:none"
         d="m 983.992,4428.31 c 0,-84.43 49.248,-140.71 121.608,-140.71 71.37,0 120.61,56.28 120.61,140.71 0,83.42 -49.24,140.71 -120.61,140.71 -72.36,0 -121.608,-57.29 -121.608,-140.71 z m 417.098,2.01 c 0,-166.84 -118.6,-277.4 -295.49,-277.4 -177.889,0 -296.491,110.56 -296.491,277.4 0,166.84 118.602,276.39 296.491,276.39 176.89,0 295.49,-109.55 295.49,-276.39" /><path
         id="path298"
         style="fill:#3b393d;fill-opacity:1;fill-rule:nonzero;stroke:none"
         d="m 1914.71,4432.33 c 0,82.41 -49.25,140.71 -121.61,140.71 -70.36,0 -119.61,-58.3 -119.61,-140.71 0,-84.42 49.25,-141.71 119.61,-141.71 72.36,0 121.61,58.29 121.61,141.71 z m 174.88,-5.02 c 0,-164.84 -98.5,-274.39 -250.26,-274.39 -70.36,0 -127.65,28.15 -165.84,78.4 v -267.35 h -173.88 v 736.71 h 173.88 v -71.36 c 38.19,49.25 93.47,77.39 161.82,77.39 152.77,0 254.28,-111.56 254.28,-279.4" /><path
         id="path300"
         style="fill:#3b393d;fill-opacity:1;fill-rule:nonzero;stroke:none"
         d="m 2600.19,4647.42 -59.29,-112.57 c -65.33,35.18 -125.64,54.27 -170.87,54.27 -31.15,0 -53.26,-12.06 -53.26,-37.19 0,-74.37 285.43,-38.19 284.43,-227.14 0,-111.56 -97.49,-172.87 -228.15,-172.87 -90.46,0 -177.89,26.13 -243.23,76.38 l 55.28,110.56 c 61.31,-43.22 131.67,-67.34 191.97,-67.34 34.17,0 59.3,12.06 59.3,37.19 0,79.4 -280.41,38.19 -279.41,228.15 0,111.56 94.48,171.86 220.11,171.86 78.39,0 156.79,-22.11 223.12,-61.3" /><path
         id="path302"
         style="fill:#3b393d;fill-opacity:1;fill-rule:nonzero;stroke:none"
         d="m 2816.3,4400.17 h -104.53 l -30.15,279.41 v 178.9 h 164.82 v -178.9 z m 29.14,-164.83 c 0,-50.26 -35.18,-84.43 -84.42,-84.43 -48.25,0 -83.42,34.17 -83.42,84.43 0,49.25 35.17,83.42 83.42,83.42 49.24,0 84.42,-34.17 84.42,-83.42" /><path
         id="path304"
         style="fill:#3b393d;fill-opacity:1;fill-rule:nonzero;stroke:none"
         d="m 192.301,3623.55 -40.36,132.73 -40.832,-132.73 H 81.4453 l -56.3906,170.16 h 30.8711 l 41.3242,-138.32 41.086,138.08 28.191,0.24 41.328,-138.32 41.086,138.32 h 29.653 l -56.879,-170.16 h -29.414" /><path
         id="path306"
         style="fill:#3b393d;fill-opacity:1;fill-rule:nonzero;stroke:none"
         d="m 373.164,3697.94 c -0.976,20.9 -14.828,33.54 -35.98,33.54 -20.422,0 -34.758,-12.89 -37.922,-33.54 z m 24.305,-20.43 h -97.723 c 4.379,-19.93 19.695,-32.32 40.113,-32.32 14.102,0 26.981,5.34 36.465,15.06 l 14.828,-15.8 c -12.648,-13.85 -31.117,-21.87 -53.48,-21.87 -39.863,0 -66.121,26.49 -66.121,65.39 0,39.14 26.984,65.63 65.39,65.87 45.457,0 63.934,-29.65 60.528,-76.33" /><path
         id="path308"
         style="fill:#3b393d;fill-opacity:1;fill-rule:nonzero;stroke:none"
         d="m 595.836,3732.7 -15.313,-17.99 c -9,9.24 -21.398,14.82 -36.953,14.58 -22.359,0 -38.41,-16.77 -38.41,-41.32 0,-24.56 16.051,-41.33 38.41,-41.33 16.289,0 29.414,5.35 38.164,15.56 l 15.555,-15.56 c -11.664,-15.31 -30.387,-24.06 -54.93,-24.06 -38.414,0 -65.152,26.49 -65.152,65.39 0,39.14 26.738,65.87 65.152,65.87 23.332,0 41.567,-7.53 53.477,-21.14" /><path
         id="path310"
         style="fill:#3b393d;fill-opacity:1;fill-rule:nonzero;stroke:none"
         d="m 698.422,3669 v 11.92 h -35.004 c -18.227,0 -26.738,-4.87 -26.738,-17.26 0,-11.67 9.476,-19.21 25.039,-19.21 19.926,0 35.242,10.45 36.703,24.55 z m 0.238,-29.65 c -9.23,-11.42 -24.062,-17.02 -42.781,-17.02 -27.953,0 -45.453,17.27 -45.453,40.11 0,23.58 17.746,38.65 48.859,38.9 h 39.137 v 3.89 c 0,16.28 -10.453,26.01 -30.875,26.01 -12.395,0 -25.277,-4.38 -38.164,-13.13 l -11.426,19.45 c 17.996,10.69 31.113,16.28 55.672,16.28 33.305,0 52.019,-17.01 52.258,-45.46 l 0.25,-84.83 H 698.66 v 15.8" /><path
         id="path312"
         style="fill:#3b393d;fill-opacity:1;fill-rule:nonzero;stroke:none"
         d="m 887.309,3704.01 v -80.46 h -27.954 v 72.68 c 0,19.44 -11.671,31.36 -31.117,31.36 -21.394,-0.25 -34.761,-15.07 -36.711,-35.25 v -68.79 h -27.949 v 129.32 h 27.949 v -24.79 c 9.239,17.99 25.774,25.76 47.653,25.76 30.136,0 48.129,-18.96 48.129,-49.83" /><path
         id="path314"
         style="fill:#3b393d;fill-opacity:1;fill-rule:nonzero;stroke:none"
         d="m 945.406,3778.16 c 0,-4.87 -1.699,-8.76 -4.383,-12.65 l -13.847,-20.9 h -14.344 l 9.238,20.9 c -4.379,2.92 -6.562,7.54 -6.562,12.65 0,9.23 6.316,15.55 15.066,15.55 7.781,0 14.832,-5.59 14.832,-15.55" /><path
         id="path316"
         style="fill:#3b393d;fill-opacity:1;fill-rule:nonzero;stroke:none"
         d="m 1049.94,3631.82 c -10.21,-6.08 -20.91,-9.49 -31.85,-9.49 -19.449,0 -36.219,11.19 -36.219,37.68 v 67.1 h -18.234 v 20.9 h 18.234 v 35.49 h 27.709 v -35.49 h 38.17 v -20.9 h -38.17 v -62 c 0,-13.37 5.11,-17.5 13.86,-17.5 5.83,0 11.91,1.95 19.45,5.59 l 7.05,-21.38" /><path
         id="path318"
         style="fill:#3b393d;fill-opacity:1;fill-rule:nonzero;stroke:none"
         d="m 1222.28,3740.96 -10.21,-20.67 c -11.42,7.05 -25.76,11.43 -37.19,11.43 -10.94,0 -18.96,-3.64 -18.96,-12.88 0,-23.82 68.8,-10.94 68.55,-57.86 0,-26.49 -23.58,-38.4 -49.59,-38.4 -18.96,0 -39.13,6.32 -52.01,17.99 l 9.96,19.92 c 11.18,-9.96 29.17,-16.04 43.27,-16.04 11.91,0 21.15,4.13 21.15,13.86 0,26.5 -68.07,11.67 -67.82,58.34 0,26.25 22.84,37.44 47.64,37.44 16.29,0 33.54,-4.86 45.21,-13.13" /><path
         id="path320"
         style="fill:#3b393d;fill-opacity:1;fill-rule:nonzero;stroke:none"
         d="m 1342.13,3697.94 c -0.98,20.9 -14.84,33.54 -35.98,33.54 -20.42,0 -34.76,-12.89 -37.92,-33.54 z m 24.31,-20.43 h -97.73 c 4.38,-19.93 19.69,-32.32 40.11,-32.32 14.1,0 26.99,5.34 36.47,15.06 l 14.83,-15.8 c -12.65,-13.85 -31.12,-21.87 -53.48,-21.87 -39.87,0 -66.13,26.49 -66.13,65.39 0,39.14 26.99,65.63 65.39,65.87 45.46,0 63.94,-29.65 60.54,-76.33" /><path
         id="path322"
         style="fill:#3b393d;fill-opacity:1;fill-rule:nonzero;stroke:none"
         d="m 1485.07,3697.94 c -0.98,20.9 -14.84,33.54 -35.99,33.54 -20.41,0 -34.75,-12.89 -37.91,-33.54 z m 24.3,-20.43 h -97.72 c 4.37,-19.93 19.69,-32.32 40.11,-32.32 14.1,0 26.98,5.34 36.47,15.06 l 14.83,-15.8 c -12.65,-13.85 -31.12,-21.87 -53.49,-21.87 -39.86,0 -66.12,26.49 -66.12,65.39 0,39.14 26.99,65.63 65.39,65.87 45.46,0 63.93,-29.65 60.53,-76.33" /><path
         id="path324"
         style="fill:#3b393d;fill-opacity:1;fill-rule:nonzero;stroke:none"
         d="m 1754.65,3704.01 v -80.46 h -27.96 v 72.68 c 0,19.69 -11.67,31.6 -30.62,31.6 -22.12,-0.72 -35.49,-17.74 -35.49,-40.35 v -63.93 h -27.96 v 72.68 c 0,19.69 -11.42,31.6 -30.39,31.6 -22.36,-0.72 -35.98,-17.74 -35.98,-40.35 v -63.93 h -27.7 v 129.32 h 27.7 v -25.04 c 9,18.24 25.53,26.01 46.92,26.01 23.09,0 38.89,-11.42 44.97,-31.11 8.27,21.63 25.53,31.11 49.11,31.11 29.66,0 47.4,-18.96 47.4,-49.83" /><path
         id="path326"
         style="fill:#3b393d;fill-opacity:1;fill-rule:nonzero;stroke:none"
         d="m 1927.98,3631.82 c -10.21,-6.08 -20.9,-9.49 -31.84,-9.49 -19.45,0 -36.22,11.19 -36.22,37.68 v 67.1 h -18.23 v 20.9 h 18.23 v 35.49 h 27.71 v -35.49 h 38.17 v -20.9 h -38.17 v -62 c 0,-13.37 5.1,-17.5 13.86,-17.5 5.83,0 11.91,1.95 19.45,5.59 l 7.04,-21.38" /><path
         id="path328"
         style="fill:#3b393d;fill-opacity:1;fill-rule:nonzero;stroke:none"
         d="m 1968.1,3687.97 c 0,-25.04 16.28,-42.06 39.62,-42.06 23.09,0 39.38,17.02 39.38,42.06 0,24.79 -16.29,41.81 -39.38,41.81 -23.34,0 -39.62,-17.02 -39.62,-41.81 z m 106.95,0.24 c 0,-38.89 -27.46,-65.63 -67.33,-65.63 -40.11,0 -67.58,26.74 -67.58,65.63 0,39.13 27.47,65.63 67.58,65.63 39.87,0 67.33,-26.5 67.33,-65.63" /><path
         id="path330"
         style="fill:#3b393d;fill-opacity:1;fill-rule:nonzero;stroke:none"
         d="m 2278.03,3752.87 v -129.32 h -27.7 v 129.32 z m -30.13,36.95 c 0,9.97 7.05,17.02 16.28,17.02 9.23,0 16.28,-7.05 16.28,-17.02 0,-9.72 -7.05,-16.77 -16.28,-16.77 -9.23,0 -16.28,7.05 -16.28,16.77 z m -75.61,-29.17 c 0,30.87 22.85,44.48 44.49,44.48 8.75,0 17.26,-1.94 24.06,-5.83 l -0.97,-24.3 c -7.53,3.39 -15.56,5.59 -22.36,5.59 -9.97,0 -17.51,-4.62 -17.51,-17.26 v -15.08 h 33.79 v -20.91 H 2200 v -103.79 h -27.71 v 103.79 h -17.01 v 20.91 h 17.01 v 12.4" /><path
         id="path332"
         style="fill:#3b393d;fill-opacity:1;fill-rule:nonzero;stroke:none"
         d="m 2443.1,3704.01 v -80.46 h -27.96 v 72.68 c 0,19.44 -11.67,31.36 -31.12,31.36 -21.39,-0.25 -34.76,-15.07 -36.71,-35.25 v -68.79 h -27.95 v 129.32 h 27.95 v -24.79 c 9.24,17.99 25.78,25.76 47.66,25.76 30.13,0 48.13,-18.96 48.13,-49.83" /><path
         id="path334"
         style="fill:#3b393d;fill-opacity:1;fill-rule:nonzero;stroke:none"
         d="m 2575.82,3687.73 c 0,25.03 -16.28,42.53 -39.62,42.53 -23.33,0 -39.62,-17.74 -39.87,-42.53 0.25,-24.56 16.29,-42.07 39.87,-42.07 23.34,0 39.62,17.51 39.62,42.07 z m 27.96,-64.18 h -27.96 v 22.11 c -9.23,-15.06 -24.79,-23.33 -45.45,-23.33 -37.19,0 -61.99,26.99 -61.99,66.37 0,38.89 25.04,65.39 61.5,65.39 20.91,0 36.47,-8.51 45.94,-23.59 v 73.42 h 27.96 v -180.37" /><path
         id="path336"
         style="fill:#3b393d;fill-opacity:1;fill-rule:nonzero;stroke:none"
         d="m 2782.21,3631.82 c -10.21,-6.08 -20.9,-9.49 -31.84,-9.49 -19.45,0 -36.23,11.19 -36.23,37.68 v 67.1 h -18.23 v 20.9 h 18.23 v 35.49 h 27.72 v -35.49 h 38.16 v -20.9 h -38.16 v -62 c 0,-13.37 5.1,-17.5 13.86,-17.5 5.83,0 11.91,1.95 19.44,5.59 l 7.05,-21.38" /><path
         id="path338"
         style="fill:#3b393d;fill-opacity:1;fill-rule:nonzero;stroke:none"
         d="m 2933.16,3704.01 v -80.46 h -27.95 v 72.68 c 0,19.44 -11.66,31.36 -31.11,31.36 -23.09,-0.25 -36.95,-17.5 -36.95,-40.35 v -63.69 h -27.96 v 180.37 h 27.96 v -76.33 c 9.24,18.23 25.76,26.25 47.89,26.25 30.14,0 48.12,-18.96 48.12,-49.83" /><path
         id="path340"
         style="fill:#3b393d;fill-opacity:1;fill-rule:nonzero;stroke:none"
         d="m 3060.06,3697.94 c -0.97,20.9 -14.83,33.54 -35.98,33.54 -20.42,0 -34.76,-12.89 -37.92,-33.54 z m 24.31,-20.43 h -97.73 c 4.38,-19.93 19.69,-32.32 40.12,-32.32 14.1,0 26.98,5.34 36.46,15.06 l 14.83,-15.8 c -12.65,-13.85 -31.12,-21.87 -53.48,-21.87 -39.87,0 -66.12,26.49 -66.12,65.39 0,39.14 26.98,65.63 65.39,65.87 45.46,0 63.93,-29.65 60.53,-76.33" /><path
         id="path342"
         style="fill:#3b393d;fill-opacity:1;fill-rule:nonzero;stroke:none"
         d="m 152.914,3396.98 c 0,24.06 -16.289,41.81 -39.379,41.81 -23.0897,0 -39.3787,-17.51 -39.3787,-41.81 0,-25.04 16.289,-42.3 39.3787,-42.3 23.09,0 39.379,17.5 39.379,42.3 z m 28.203,-0.98 c 0,-38.65 -24.312,-65.14 -61.258,-65.14 -20.6637,0 -36.2262,8.27 -45.7027,23.33 v -69.52 H 46.1992 v 176.48 h 27.9571 v -22.36 c 9.4765,15.07 25.039,23.34 45.2147,23.34 36.703,0 61.746,-26.74 61.746,-66.13" /><path
         id="path344"
         style="fill:#3b393d;fill-opacity:1;fill-rule:nonzero;stroke:none"
         d="m 287.594,3377.29 v 11.91 h -35.008 c -18.231,0 -26.738,-4.86 -26.738,-17.26 0,-11.67 9.48,-19.21 25.035,-19.21 19.933,0 35.25,10.46 36.711,24.56 z m 0.238,-29.66 c -9.238,-11.42 -24.066,-17.02 -42.785,-17.02 -27.953,0 -45.453,17.26 -45.453,40.11 0,23.58 17.746,38.66 48.863,38.9 h 39.137 v 3.89 c 0,16.29 -10.461,26.01 -30.875,26.01 -12.399,0 -25.278,-4.38 -38.164,-13.13 l -11.43,19.45 c 17.992,10.69 31.117,16.29 55.672,16.29 33.301,0 52.023,-17.02 52.262,-45.46 l 0.25,-84.84 h -27.477 v 15.8" /><path
         id="path346"
         style="fill:#3b393d;fill-opacity:1;fill-rule:nonzero;stroke:none"
         d="m 441.707,3399.9 c 0,23.33 -15.316,39.62 -37.191,39.62 -22.118,0 -37.438,-16.53 -37.676,-39.62 0.238,-23.34 15.308,-39.87 37.676,-39.87 21.875,0 37.191,16.53 37.191,39.87 z m 27.715,-55.43 c 0,-37.19 -26.492,-60.53 -67.094,-60.53 -20.18,0 -37.918,6.32 -53.726,17.02 l 11.914,20.17 c 12.156,-9 24.797,-14.1 40.597,-14.1 24.551,0 40.594,14.34 40.594,36.72 v 16.28 c -8.75,-14.1 -23.332,-21.88 -42.781,-21.88 -35.004,0 -58.34,25.28 -58.34,62.47 0,36.47 23.094,61.27 57.367,61.51 19.934,0.24 34.762,-7.78 43.754,-21.88 v 20.9 h 27.715 v -116.68" /><path
         id="path348"
         style="fill:#3b393d;fill-opacity:1;fill-rule:nonzero;stroke:none"
         d="m 597.777,3406.22 c -0.972,20.9 -14.828,33.54 -35.976,33.54 -20.418,0 -34.758,-12.88 -37.918,-33.54 z m 24.313,-20.42 h -97.727 c 4.375,-19.93 19.688,-32.33 40.114,-32.33 14.097,0 26.976,5.34 36.464,15.07 l 14.825,-15.81 c -12.641,-13.85 -31.114,-21.87 -53.481,-21.87 -39.863,0 -66.117,26.49 -66.117,65.39 0,39.14 26.98,65.64 65.391,65.88 45.453,0 63.929,-29.66 60.531,-76.33" /><path
         id="path350"
         style="fill:#3b393d;fill-opacity:1;fill-rule:nonzero;stroke:none"
         d="m 764.781,3314.09 c -8.023,-20.43 -22.609,-30.63 -42.058,-30.63 -11.664,0 -20.903,3.4 -29.903,10.94 l 11.914,21.63 c 6.075,-4.38 10.946,-6.32 16.774,-6.32 8.508,0 15.316,4.62 19.691,14.34 l 4.375,9.72 -53.48,127.38 h 28.929 l 38.649,-97.96 35.98,97.96 h 27.957 l -58.828,-147.06" /><path
         id="path352"
         style="fill:#3b393d;fill-opacity:1;fill-rule:nonzero;stroke:none"
         d="m 854,3396.25 c 0,-25.04 16.289,-42.06 39.621,-42.06 23.094,0 39.383,17.02 39.383,42.06 0,24.79 -16.289,41.81 -39.383,41.81 -23.332,0 -39.621,-17.02 -39.621,-41.81 z m 106.957,0.24 c 0,-38.89 -27.465,-65.63 -67.336,-65.63 -40.109,0 -67.578,26.74 -67.578,65.63 0,39.14 27.469,65.64 67.578,65.64 39.871,0 67.336,-26.5 67.336,-65.64" /><path
         id="path354"
         style="fill:#3b393d;fill-opacity:1;fill-rule:nonzero;stroke:none"
         d="m 1107.54,3331.83 h -27.95 v 25.28 c -8.76,-17.98 -25.04,-26.01 -46.19,-26.25 -29.66,0 -47.404,18.96 -47.404,49.83 v 80.46 h 27.954 v -72.68 c 0,-19.45 11.43,-31.36 30.15,-31.36 22.36,0.49 35.49,17.75 35.49,40.35 v 63.69 h 27.95 v -129.32" /><path
         id="path356"
         style="fill:#3b393d;fill-opacity:1;fill-rule:nonzero;stroke:none"
         d="m 1169.53,3486.44 c 0,-4.87 -1.7,-8.75 -4.37,-12.65 l -13.86,-20.9 h -14.34 l 9.24,20.9 c -4.38,2.92 -6.57,7.54 -6.57,12.65 0,9.23 6.33,15.55 15.08,15.55 7.77,0 14.82,-5.59 14.82,-15.55" /><path
         id="path358"
         style="fill:#3b393d;fill-opacity:1;fill-rule:nonzero;stroke:none"
         d="m 1228.85,3435.39 c 8.75,17.5 24.31,26.74 44.73,26.74 v -26.74 c -26.01,1.45 -42.55,-13.86 -44.73,-35.98 v -67.58 h -27.96 v 129.32 h 27.96 v -25.76" /><path
         id="path360"
         style="fill:#3b393d;fill-opacity:1;fill-rule:nonzero;stroke:none"
         d="m 1386.13,3406.22 c -0.98,20.9 -14.83,33.54 -35.98,33.54 -20.42,0 -34.76,-12.88 -37.92,-33.54 z m 24.31,-20.42 h -97.73 c 4.38,-19.93 19.7,-32.33 40.12,-32.33 14.09,0 26.97,5.34 36.46,15.07 l 14.83,-15.81 c -12.65,-13.85 -31.12,-21.87 -53.49,-21.87 -39.86,0 -66.11,26.49 -66.11,65.39 0,39.14 26.98,65.64 65.39,65.88 45.45,0 63.93,-29.66 60.53,-76.33" /><path
         id="path362"
         style="fill:#3b393d;fill-opacity:1;fill-rule:nonzero;stroke:none"
         d="m 1503.54,3331.83 v 180.37 h 27.96 v -180.37 h -27.96" /><path
         id="path364"
         style="fill:#3b393d;fill-opacity:1;fill-rule:nonzero;stroke:none"
         d="m 1589.84,3396.25 c 0,-25.04 16.29,-42.06 39.62,-42.06 23.1,0 39.38,17.02 39.38,42.06 0,24.79 -16.28,41.81 -39.38,41.81 -23.33,0 -39.62,-17.02 -39.62,-41.81 z m 106.96,0.24 c 0,-38.89 -27.47,-65.63 -67.34,-65.63 -40.11,0 -67.58,26.74 -67.58,65.63 0,39.14 27.47,65.64 67.58,65.64 39.87,0 67.34,-26.5 67.34,-65.64" /><path
         id="path366"
         style="fill:#3b393d;fill-opacity:1;fill-rule:nonzero;stroke:none"
         d="m 1741.77,3396.25 c 0,-25.04 16.29,-42.06 39.63,-42.06 23.09,0 39.38,17.02 39.38,42.06 0,24.79 -16.29,41.81 -39.38,41.81 -23.34,0 -39.63,-17.02 -39.63,-41.81 z m 106.96,0.24 c 0,-38.89 -27.47,-65.63 -67.33,-65.63 -40.12,0 -67.58,26.74 -67.58,65.63 0,39.14 27.46,65.64 67.58,65.64 39.86,0 67.33,-26.5 67.33,-65.64" /><path
         id="path368"
         style="fill:#3b393d;fill-opacity:1;fill-rule:nonzero;stroke:none"
         d="m 1907.08,3368.05 v -36.22 h -27.96 v 180.37 h 27.96 v -108.9 l 57.13,57.85 h 32.08 l -47.89,-50.07 51.54,-79.25 h -33.06 l -37.93,59.31 -21.87,-23.09" /><path
         id="path370"
         style="fill:#3b393d;fill-opacity:1;fill-rule:nonzero;stroke:none"
         d="m 2022.54,3331.83 v 129.32 h 27.71 v -129.32 z m 30.15,166.28 c 0,-9.73 -7.06,-16.78 -16.29,-16.78 -9.24,0 -16.29,7.05 -16.29,16.78 0,9.96 7.05,17.01 16.29,17.01 9.23,0 16.29,-7.05 16.29,-17.01" /><path
         id="path372"
         style="fill:#3b393d;fill-opacity:1;fill-rule:nonzero;stroke:none"
         d="m 2215.32,3412.3 v -80.47 h -27.96 v 72.69 c 0,19.44 -11.67,31.35 -31.12,31.35 -21.39,-0.24 -34.76,-15.07 -36.71,-35.25 v -68.79 h -27.95 v 129.32 h 27.95 v -24.79 c 9.24,17.99 25.78,25.77 47.65,25.77 30.14,0 48.14,-18.96 48.14,-49.83" /><path
         id="path374"
         style="fill:#3b393d;fill-opacity:1;fill-rule:nonzero;stroke:none"
         d="m 2341.72,3399.9 c 0,23.33 -15.31,39.62 -37.19,39.62 -22.12,0 -37.44,-16.53 -37.67,-39.62 0.23,-23.34 15.3,-39.87 37.67,-39.87 21.88,0 37.19,16.53 37.19,39.87 z m 27.72,-55.43 c 0,-37.19 -26.5,-60.53 -67.1,-60.53 -20.18,0 -37.92,6.32 -53.72,17.02 l 11.91,20.17 c 12.16,-9 24.79,-14.1 40.6,-14.1 24.55,0 40.59,14.34 40.59,36.72 v 16.28 c -8.75,-14.1 -23.33,-21.88 -42.78,-21.88 -35,0 -58.34,25.28 -58.34,62.47 0,36.47 23.1,61.27 57.37,61.51 19.93,0.24 34.76,-7.78 43.75,-21.88 v 20.9 h 27.72 v -116.68" /><path
         id="path376"
         style="fill:#3b393d;fill-opacity:1;fill-rule:nonzero;stroke:none"
         d="m 2504.11,3471.61 v -15.32 h 33.79 v -20.9 h -33.79 v -103.56 h -27.71 v 103.56 h -17.02 v 20.9 h 17.02 v 12.64 c 0,30.15 22.12,44.48 44.48,44.48 10.45,0 20.91,-2.91 29.17,-8.99 l -10.69,-21.39 c -5.35,3.89 -11.91,6.08 -17.74,6.08 -9.49,0 -17.51,-5.35 -17.51,-17.5" /><path
         id="path378"
         style="fill:#3b393d;fill-opacity:1;fill-rule:nonzero;stroke:none"
         d="m 2567.8,3396.25 c 0,-25.04 16.29,-42.06 39.63,-42.06 23.08,0 39.37,17.02 39.37,42.06 0,24.79 -16.29,41.81 -39.37,41.81 -23.34,0 -39.63,-17.02 -39.63,-41.81 z m 106.96,0.24 c 0,-38.89 -27.47,-65.63 -67.33,-65.63 -40.12,0 -67.59,26.74 -67.59,65.63 0,39.14 27.47,65.64 67.59,65.64 39.86,0 67.33,-26.5 67.33,-65.64" /><path
         id="path380"
         style="fill:#3b393d;fill-opacity:1;fill-rule:nonzero;stroke:none"
         d="m 2731.89,3435.39 c 8.75,17.5 24.31,26.74 44.73,26.74 v -26.74 c -26.01,1.45 -42.55,-13.86 -44.73,-35.98 v -67.58 h -27.96 v 129.32 h 27.96 v -25.76" /><path
         id="path382"
         style="fill:#3b393d;fill-opacity:1;fill-rule:nonzero;stroke:none"
         d="m 2820.86,3345.93 c 0,-9.48 -6.57,-16.29 -15.32,-16.29 -8.75,0 -15.31,6.81 -15.31,16.29 0,9.24 6.56,15.8 15.31,15.8 8.75,0 15.32,-6.56 15.32,-15.8" /><path
         id="path384"
         style="fill:#3b393d;fill-opacity:1;fill-rule:nonzero;stroke:none"
         d="m 50.9375,3064.81 v -42.68 h 65.4965 v -14.28 H 50.9375 v -44.53 h 75.7035 v -14.11 H 36.0938 v 129.89 h 88.1292 v -14.29 H 50.9375" /><path
         id="path386"
         style="fill:#3b393d;fill-opacity:1;fill-rule:nonzero;stroke:none"
         d="m 169.273,3025.29 c 6.493,14.29 18.555,22.08 35.067,22.26 v -14.65 c -20.594,0.37 -33.399,-12.44 -35.067,-31.72 v -51.97 h -14.472 v 97.8 h 14.472 v -21.72" /><path
         id="path388"
         style="fill:#3b393d;fill-opacity:1;fill-rule:nonzero;stroke:none"
         d="m 238.27,3025.29 c 6.496,14.29 18.554,22.08 35.07,22.26 v -14.65 c -20.598,0.37 -33.399,-12.44 -35.07,-31.72 v -51.97 h -14.473 v 97.8 h 14.473 v -21.72" /><path
         id="path390"
         style="fill:#3b393d;fill-opacity:1;fill-rule:nonzero;stroke:none"
         d="m 297.438,2998.01 c 0,-21.52 14.656,-36.36 35.066,-36.36 20.41,0 35.07,14.84 35.07,36.36 0,21.34 -14.66,36.19 -35.07,36.19 -20.41,0 -35.066,-14.85 -35.066,-36.19 z m 84.609,0.19 c 0,-29.32 -20.598,-49.53 -49.543,-49.53 -28.945,0 -49.539,20.21 -49.539,49.53 0,29.13 20.594,49.17 49.539,49.17 28.945,0 49.543,-20.04 49.543,-49.17" /><path
         id="path392"
         style="fill:#3b393d;fill-opacity:1;fill-rule:nonzero;stroke:none"
         d="m 421.898,3025.29 c 6.497,14.29 18.555,22.08 35.071,22.26 v -14.65 c -20.594,0.37 -33.399,-12.44 -35.071,-31.72 v -51.97 h -14.472 v 97.8 h 14.472 v -21.72" /><path
         id="path394"
         style="fill:#3b393d;fill-opacity:1;fill-rule:nonzero;stroke:none"
         d="m 603.512,3032.9 -7.981,-10.21 c -7.422,7.05 -17.254,11.32 -29.129,11.32 -20.226,0 -34.699,-14.66 -34.699,-36 0,-21.32 14.473,-36.17 34.699,-36.17 12.801,0 23.379,4.45 30.239,12.61 l 8.355,-8.9 c -8.723,-10.57 -22.266,-16.88 -39.152,-16.88 -28.387,0 -48.422,20.21 -48.422,49.34 0,29.13 20.219,49.36 48.422,49.36 15.765,0.18 28.761,-5.2 37.668,-14.47" /><path
         id="path396"
         style="fill:#3b393d;fill-opacity:1;fill-rule:nonzero;stroke:none"
         d="m 631.309,2998.01 c 0,-21.52 14.656,-36.36 35.066,-36.36 20.41,0 35.07,14.84 35.07,36.36 0,21.34 -14.66,36.19 -35.07,36.19 -20.41,0 -35.066,-14.85 -35.066,-36.19 z m 84.609,0.19 c 0,-29.32 -20.598,-49.53 -49.543,-49.53 -28.945,0 -49.535,20.21 -49.535,49.53 0,29.13 20.59,49.17 49.535,49.17 28.945,0 49.543,-20.04 49.543,-49.17" /><path
         id="path398"
         style="fill:#3b393d;fill-opacity:1;fill-rule:nonzero;stroke:none"
         d="m 816.625,2997.84 c 0,21.33 -14.656,36.73 -35.254,36.73 -20.781,0 -35.433,-15.4 -35.433,-36.73 0,-21.15 14.652,-36.38 35.433,-36.38 20.598,0 35.254,15.23 35.254,36.38 z m 14.473,-48.63 h -14.473 v 20.97 c -7.234,-13.73 -20.594,-21.71 -38.035,-21.71 -27.828,0 -47.125,20.6 -47.125,49.73 0,29.32 19.297,49.54 46.937,49.54 17.442,0 30.989,-7.98 38.223,-21.89 v 61.04 h 14.473 v -137.68" /><path
         id="path400"
         style="fill:#3b393d;fill-opacity:1;fill-rule:nonzero;stroke:none"
         d="m 938.484,3004.32 c -0.925,18.74 -13.543,30.62 -32.656,30.62 -18.547,0 -31.906,-12.06 -34.14,-30.62 z m 12.985,-11.87 h -79.781 c 2.597,-19.11 16.515,-31.17 35.441,-31.17 12.059,0 22.637,4.27 30.242,12.24 l 7.977,-8.53 c -9.274,-10.38 -23.004,-16.32 -39.332,-16.32 -28.762,0 -48.61,20.21 -48.61,49.34 0,29.13 20.035,49.36 48.422,49.36 31.543,0.18 47.125,-21.71 45.641,-54.92" /><path
         id="path402"
         style="fill:#3b393d;fill-opacity:1;fill-rule:nonzero;stroke:none"
         d="m 986.133,2957.38 c 0,-5.57 -3.891,-9.64 -8.906,-9.64 -5.192,0 -9.086,4.07 -9.086,9.64 0,5.57 3.894,9.65 9.086,9.65 5.015,0 8.906,-4.08 8.906,-9.65 z m 0,55.11 c 0,-5.57 -3.891,-9.65 -8.906,-9.65 -5.192,0 -9.086,4.08 -9.086,9.65 0,5.56 3.894,9.64 9.086,9.64 5.015,0 8.906,-4.08 8.906,-9.64" /><path
         id="path404"
         style="fill:#3b393d;fill-opacity:1;fill-rule:nonzero;stroke:none"
         d="m 1113.94,2997.64 v 34.33 h 13.93 v -34.33 h 19.66 v -14.27 h -19.66 v -34.16 h -13.93 v 34.16 h -62.33 v 12.23 l 46.57,83.5 h 14.66 l -45.28,-81.46 h 46.38" /><path
         id="path406"
         style="fill:#3b393d;fill-opacity:1;fill-rule:nonzero;stroke:none"
         d="m 1177.74,3014.16 c 0,-35.07 13.36,-52.7 38.59,-52.7 25.23,0 38.59,17.63 38.59,52.7 0,35.25 -13.36,52.69 -38.59,52.69 -25.23,0 -38.59,-17.44 -38.59,-52.69 z m 92.21,0 c 0,-41.94 -19.11,-65.32 -53.62,-65.32 -34.5,0 -53.62,23.38 -53.62,65.32 0,41.93 19.12,65.31 53.62,65.31 34.51,0 53.62,-23.38 53.62,-65.31" /><path
         id="path408"
         style="fill:#3b393d;fill-opacity:1;fill-rule:nonzero;stroke:none"
         d="m 1347.84,2997.64 v 34.33 h 13.92 v -34.33 h 19.67 v -14.27 h -19.67 v -34.16 h -13.92 v 34.16 h -62.34 v 12.23 l 46.57,83.5 h 14.66 l -45.28,-81.46 h 46.39" /></g></g></svg>